<?xml version="1.0" encoding="UTF-8" standalone="no"?>
<!-- Created with Inkscape (http://www.inkscape.org/) -->

<svg
   width="97.029999mm"
   height="64mm"
   viewBox="0 0 97.029999 63.999999"
   version="1.1"
   id="svg1"
   sodipodi:docname="Brasao_municipal.svg"
   inkscape:version="1.4 (86a8ad7, 2024-10-11)"
   xmlns:inkscape="http://www.inkscape.org/namespaces/inkscape"
   xmlns:sodipodi="http://sodipodi.sourceforge.net/DTD/sodipodi-0.dtd"
   xmlns:xlink="http://www.w3.org/1999/xlink"
   xmlns="http://www.w3.org/2000/svg"
   xmlns:svg="http://www.w3.org/2000/svg">
  <sodipodi:namedview
     id="namedview1"
     pagecolor="#ffffff"
     bordercolor="#000000"
     borderopacity="0.25"
     inkscape:showpageshadow="2"
     inkscape:pageopacity="0.0"
     inkscape:pagecheckerboard="0"
     inkscape:deskcolor="#d1d1d1"
     inkscape:document-units="mm"
     inkscape:zoom="0.99398997"
     inkscape:cx="179.07625"
     inkscape:cy="181.59137"
     inkscape:window-width="1920"
     inkscape:window-height="1057"
     inkscape:window-x="-8"
     inkscape:window-y="-8"
     inkscape:window-maximized="1"
     inkscape:current-layer="svg1" />
  <defs
     id="defs1">
    <linearGradient
       xlink:href="#a"
       id="linearGradient16"
       gradientUnits="userSpaceOnUse"
       gradientTransform="matrix(4.188,0,0,4.188,290.61,-101.47)"
       x1="4.1957998"
       y1="39.043999"
       x2="75.690002"
       y2="39.323002" />
    <linearGradient
       id="a"
       x1="4.1957998"
       x2="75.690002"
       y1="39.043999"
       y2="39.323002"
       gradientTransform="matrix(4.188,0,0,4.188,290.61,-101.47)"
       gradientUnits="userSpaceOnUse">
      <stop
         stop-color="#f6f652"
         offset="0"
         id="stop1" />
      <stop
         stop-color="#cd9329"
         offset="1"
         id="stop2" />
    </linearGradient>
    <linearGradient
       xlink:href="#a"
       id="linearGradient1"
       gradientUnits="userSpaceOnUse"
       gradientTransform="matrix(4.188,0,0,4.188,290.61,-101.47)"
       x1="4.1957998"
       y1="39.043999"
       x2="75.690002"
       y2="39.323002" />
    <linearGradient
       xlink:href="#a"
       id="linearGradient2"
       gradientUnits="userSpaceOnUse"
       gradientTransform="matrix(4.188,0,0,4.188,290.61,-101.47)"
       x1="4.1957998"
       y1="39.043999"
       x2="75.690002"
       y2="39.323002" />
    <linearGradient
       xlink:href="#a"
       id="linearGradient3"
       gradientUnits="userSpaceOnUse"
       gradientTransform="matrix(4.188,0,0,4.188,290.61,-101.47)"
       x1="4.1957998"
       y1="39.043999"
       x2="75.690002"
       y2="39.323002" />
    <linearGradient
       xlink:href="#a"
       id="linearGradient4"
       gradientUnits="userSpaceOnUse"
       gradientTransform="matrix(4.188,0,0,4.188,290.61,-101.47)"
       x1="4.1957998"
       y1="39.043999"
       x2="75.690002"
       y2="39.323002" />
    <linearGradient
       xlink:href="#a"
       id="linearGradient5"
       gradientUnits="userSpaceOnUse"
       gradientTransform="matrix(4.188,0,0,4.188,290.61,-101.47)"
       x1="4.1957998"
       y1="39.043999"
       x2="75.690002"
       y2="39.323002" />
    <linearGradient
       xlink:href="#a"
       id="linearGradient6"
       gradientUnits="userSpaceOnUse"
       gradientTransform="matrix(4.188,0,0,4.188,290.61,-101.47)"
       x1="4.1957998"
       y1="39.043999"
       x2="75.690002"
       y2="39.323002" />
    <linearGradient
       xlink:href="#a"
       id="linearGradient7"
       gradientUnits="userSpaceOnUse"
       gradientTransform="matrix(4.188,0,0,4.188,290.61,-101.47)"
       x1="4.1957998"
       y1="39.043999"
       x2="75.690002"
       y2="39.323002" />
    <linearGradient
       xlink:href="#a"
       id="linearGradient8"
       gradientUnits="userSpaceOnUse"
       gradientTransform="matrix(4.188,0,0,4.188,290.61,-101.47)"
       x1="4.1957998"
       y1="39.043999"
       x2="75.690002"
       y2="39.323002" />
    <linearGradient
       xlink:href="#a"
       id="linearGradient9"
       gradientUnits="userSpaceOnUse"
       gradientTransform="matrix(4.188,0,0,4.188,290.61,-101.47)"
       x1="4.1957998"
       y1="39.043999"
       x2="75.690002"
       y2="39.323002" />
    <linearGradient
       xlink:href="#a"
       id="linearGradient10"
       gradientUnits="userSpaceOnUse"
       gradientTransform="matrix(4.188,0,0,4.188,290.61,-101.47)"
       x1="4.1957998"
       y1="39.043999"
       x2="75.690002"
       y2="39.323002" />
    <linearGradient
       xlink:href="#a"
       id="linearGradient11"
       gradientUnits="userSpaceOnUse"
       gradientTransform="matrix(4.188,0,0,4.188,290.61,-101.47)"
       x1="4.1957998"
       y1="39.043999"
       x2="75.690002"
       y2="39.323002" />
    <linearGradient
       xlink:href="#a"
       id="linearGradient12"
       gradientUnits="userSpaceOnUse"
       gradientTransform="matrix(4.188,0,0,4.188,290.61,-101.47)"
       x1="4.1957998"
       y1="39.043999"
       x2="75.690002"
       y2="39.323002" />
    <linearGradient
       xlink:href="#a"
       id="linearGradient13"
       gradientUnits="userSpaceOnUse"
       gradientTransform="matrix(4.188,0,0,4.188,290.61,-101.47)"
       x1="4.1957998"
       y1="39.043999"
       x2="75.690002"
       y2="39.323002" />
    <linearGradient
       xlink:href="#a"
       id="linearGradient14"
       gradientUnits="userSpaceOnUse"
       gradientTransform="matrix(4.188,0,0,4.188,290.61,-101.47)"
       x1="4.1957998"
       y1="39.043999"
       x2="75.690002"
       y2="39.323002" />
    <linearGradient
       xlink:href="#a"
       id="linearGradient15"
       gradientUnits="userSpaceOnUse"
       gradientTransform="matrix(4.188,0,0,4.188,290.61,-101.47)"
       x1="4.1957998"
       y1="39.043999"
       x2="75.690002"
       y2="39.323002" />
  </defs>
  <g
     id="g1"
     transform="matrix(0.20944235,0,0,0.20944235,8.206474e-4,0.00109367)">
    <g
       transform="translate(-227.2,90.013)"
       fill="url(#a)"
       id="g16"
       style="fill:url(#linearGradient16)">
      <path
         d="m 457.78,-88.388 14.264,14.817 -14.245,136.39 -0.0935,142.02 -14.92,-0.88864 14.88,-141.13 z"
         id="path2"
         style="fill:url(#linearGradient1)" />
      <path
         d="m 489.22,-85.07 10.872,17.458 -42.289,130.45 -29.611,138.75 -14.381,-3.7948 43.862,-134.98 z"
         id="path3"
         style="fill:url(#linearGradient2)" />
      <path
         d="m 519.27,-75.291 7.006,19.337 -68.48,118.81 -57.79,129.53 -13.238,-6.7869 70.906,-122.79 z"
         id="path4"
         style="fill:url(#linearGradient3)" />
      <path
         d="m 546.64,-59.476 2.833,20.371 -91.684,101.98 -83.358,114.63 -11.468,-9.4238 94.718,-105.28 z"
         id="path5"
         style="fill:url(#linearGradient4)" />
      <path
         d="m 345.38,-38.407 20.556,-0.68597 91.829,101.85 105.48,95.3 -10.506,10.449 -95.06,-105.65 z"
         id="path6"
         style="fill:url(#linearGradient5)" />
      <path
         d="m 368.88,-59.548 20.249,3.6023 68.649,118.72 83.449,115.1 -12.551,8.0478 -71.004,-123.07 z"
         id="path7"
         style="fill:url(#linearGradient6)" />
      <path
         d="m 313.92,16.034 18.499,-8.9873 125.32,55.696 143.78,46.885 -11.844,6.1836 -2.2139,4.9001 -129.76,-57.842 z"
         id="path8"
         style="fill:url(#linearGradient7)" />
      <path
         d="m 307.33,46.954 16.226,-12.637 134.16,28.424 150.38,15.967 -16.227,12.637 -134.17,-28.473 z"
         id="path9"
         style="fill:url(#linearGradient8)" />
      <path
         d="m 326.79,-12.837 19.964,-4.9451 111,80.531 122.94,71.289 -8.0786,12.411 -114.93,-83.584 z"
         id="path10"
         style="fill:url(#linearGradient9)" />
      <path
         d="m 396.26,-75.338 19.058,7.7324 42.474,130.39 57.615,129.9 -13.9,5.2078 -43.835,-135.06 z"
         id="path11"
         style="fill:url(#linearGradient10)" />
      <path
         d="M 426.33,-85.095 443.364,-73.57 457.803,62.8 487.2,201.78 472.523,204.071 457.674,62.831 Z"
         id="path12"
         style="fill:url(#linearGradient11)" />
      <path
         d="m 570.14,-38.302 -1.4664,20.515 -110.89,80.68 -105.31,94.721 -9.3069,-11.496 114.52,-83.323 z"
         id="path13"
         style="fill:url(#linearGradient12)" />
      <path
         d="m 588.71,-12.72 -5.6991,19.762 -125.24,55.864 -122.61,70.801 -6.6683,-13.267 129.21,-57.648 z"
         id="path14"
         style="fill:url(#linearGradient13)" />
      <path
         d="m 601.55,16.157 -9.6822,18.145 -134.12,28.612 -143.87,46.591 L 323.56,91.36 457.71,62.789 Z"
         id="path15"
         style="fill:url(#linearGradient14)" />
      <path
         d="m 608.11,47.079 -13.243,15.736 -137.14,0.10481 -150.41,15.663 13.243,-15.736 137.15,-0.05888 z"
         id="path16"
         style="fill:url(#linearGradient15)" />
    </g>
    <g
       transform="translate(-227.2,90.013)"
       fill="#f6d852"
       id="g31">
      <path
         d="m 457.64,-88.388 -14.264,14.817 14.245,136.39 0.0935,142.02 14.92,-0.88864 -14.88,-141.13 z"
         id="path17" />
      <path
         d="m 426.21,-85.07 -10.872,17.458 42.289,130.45 29.611,138.75 14.381,-3.7948 -43.862,-134.98 z"
         id="path18" />
      <path
         d="m 396.15,-75.291 -7.006,19.337 68.48,118.81 57.79,129.53 13.238,-6.7869 -70.906,-122.79 z"
         id="path19" />
      <path
         d="m 368.78,-59.476 -2.833,20.371 91.684,101.98 83.358,114.63 11.468,-9.4238 -94.718,-105.28 z"
         id="path20" />
      <path
         d="m 570.04,-38.407 -20.555,-0.68597 -91.829,101.85 -105.48,95.3 10.506,10.449 95.06,-105.65 z"
         id="path21" />
      <path
         d="m 546.54,-59.548 -20.249,3.6023 -68.649,118.72 -83.449,115.1 12.551,8.0478 71.004,-123.07 z"
         id="path22" />
      <path
         d="m 601.51,16.034 -18.499,-8.9873 -125.32,55.696 -143.78,46.885 11.844,6.1836 2.2139,4.9001 129.76,-57.842 z"
         id="path23" />
      <path
         d="M 608.1,46.954 591.874,34.317 457.714,62.741 307.334,78.708 323.561,91.345 457.731,62.872 Z"
         id="path24" />
      <path
         d="m 588.64,-12.837 -19.964,-4.9451 -111,80.531 -122.94,71.289 8.0786,12.411 114.93,-83.584 z"
         id="path25" />
      <path
         d="m 519.17,-75.338 -19.058,7.7324 -42.474,130.39 -57.615,129.9 13.9,5.2078 43.835,-135.06 z"
         id="path26" />
      <path
         d="M 489.1,-85.095 472.066,-73.57 457.627,62.8 428.23,201.78 l 14.677,2.291 14.849,-141.24 z"
         id="path27" />
      <path
         d="m 345.29,-38.302 1.4664,20.515 110.89,80.68 105.31,94.721 9.3069,-11.496 -114.52,-83.323 z"
         id="path28" />
      <path
         d="m 326.72,-12.72 5.6992,19.762 125.24,55.864 122.61,70.801 6.6683,-13.267 -129.21,-57.648 z"
         id="path29" />
      <path
         d="m 313.88,16.157 9.6822,18.145 134.12,28.612 143.87,46.591 L 591.87,91.36 457.72,62.789 Z"
         id="path30" />
      <path
         d="m 307.32,47.079 13.243,15.736 137.14,0.10481 150.41,15.663 -13.243,-15.736 -137.15,-0.05888 z"
         id="path31" />
    </g>
    <g
       transform="translate(-227.2,90.013)"
       fill="none"
       stroke="#cbb023"
       stroke-width="0.8376"
       id="g46">
      <path
         d="M 472.03,-73.5 443.273,199.38"
         id="path32" />
      <path
         d="m 443.34,-73.507 28.606,272.9"
         id="path33" />
      <path
         d="m 415.29,-67.552 84.719,260.98"
         id="path34" />
      <path
         d="m 389.08,-55.893 137.13,237.67"
         id="path35" />
      <path
         d="m 365.87,-39.041 183.55,203.96"
         id="path36" />
      <path
         d="m 346.68,-17.732 221.94,161.34"
         id="path37" />
      <path
         d="m 332.33,7.1032 250.64,111.67"
         id="path38" />
      <path
         d="M 323.46,34.379 591.84,91.502"
         id="path39" />
      <path
         d="m 320.45,62.902 274.39,0.07558"
         id="path40" />
      <path
         d="M 323.44,91.428 591.85,34.453"
         id="path41" />
      <path
         d="M 332.3,118.71 583,7.17"
         id="path42" />
      <path
         d="M 346.63,143.55 568.66,-17.67"
         id="path43" />
      <path
         d="M 365.82,164.87 549.48,-38.99"
         id="path44" />
      <path
         d="M 389.02,181.74 526.28,-55.85"
         id="path45" />
      <path
         d="m 500.08,-67.529 -84.863,260.94"
         id="path46" />
    </g>
    <g
       transform="translate(-227.2,90.013)"
       fill="none"
       stroke="#cbb023"
       stroke-width="0.8376"
       id="g61">
      <path
         d="m 489.13,-85.238 -61.008,287.1"
         id="path47" />
      <path
         d="m 457.64,-88.546 0.0167,293.28"
         id="path48" />
      <path
         d="m 426.14,-85.234 61.034,287.06"
         id="path49" />
      <path
         d="m 396.02,-75.446 119.35,268.02"
         id="path50" />
      <path
         d="M 368.6,-59.61 541.19,177.91"
         id="path51" />
      <path
         d="m 345.07,-38.418 218.2,196.45"
         id="path52" />
      <path
         d="m 326.45,-12.796 254.36,146.83"
         id="path53" />
      <path
         d="m 313.57,16.136 288.15,93.608"
         id="path54" />
      <path
         d="M 306.99,47.114 608.3,78.767"
         id="path55" />
      <path
         d="M 306.99,78.783 608.3,47.097"
         id="path56" />
      <path
         d="M 313.58,109.76 601.72,16.121"
         id="path57" />
      <path
         d="M 335.18,133.66 588.83,-12.81"
         id="path58" />
      <path
         d="M 352.48,157.65 570.22,-38.43"
         id="path59" />
      <path
         d="M 374.41,177.52 546.68,-59.62"
         id="path60" />
      <path
         d="M 519.25,-75.453 399.98,192.477"
         id="path61" />
    </g>
    <g
       transform="translate(-227.2,90.013)"
       id="g62">
      <path
         d="m 457.69,-88.789 -14.339,15.28 -17.202,-11.967 -10.855,17.922 -19.32,-8.1307 -6.8874,19.795 -20.58,-3.9426 -2.6257,20.793 -20.957,0.42534 1.7587,20.883 -20.408,4.7688 6.0612,20.065 -18.969,8.9159 10.094,18.364 -16.703,12.654 13.701,15.869 -13.709,15.852 16.695,12.67 -10.11,18.363 13.21,6.2085 c 0.008,0.0209 0.0167,0.0376 0.025,0.0572 20.771,51.506 70.964,88.106 129.96,88.726 60.195,0.6325 111.99,-36.386 133.07,-89.118 l 12.343,-5.7994 -10.102,-18.364 16.703,-12.662 -13.693,-15.861 13.701,-15.852 -16.695,-12.67 10.11,-18.364 -18.961,-8.9159 6.0694,-20.065 -20.408,-4.7852 1.7668,-20.883 -20.948,-0.43352 -2.6175,-20.793 -20.58,3.9263 -6.8792,-19.795 -19.321,8.1225 -10.846,-17.93 -17.21,11.959 z"
         fill="none"
         stroke="#92801f"
         stroke-width="1.6752"
         id="path62" />
    </g>
    <g
       transform="translate(-227.2,90.013)"
       fill="none"
       stroke="#000000"
       stroke-width="2.094"
       id="g85">
      <path
         d="m 434.93,169.7 -8.6364,40.583"
         id="path63" />
      <path
         d="m 457.62,172.17 -0.008,41.414"
         id="path64" />
      <path
         d="m 480.36,169.94 8.5692,40.362"
         id="path65" />
      <path
         d="m 502.15,162.96 16.738,37.618"
         id="path66" />
      <path
         d="m 521.86,151.37 24.305,33.47"
         id="path67" />
      <path
         d="m 539.07,136.29 30.504,27.48"
         id="path68" />
      <path
         d="m 552.47,117.71 35.624,20.579"
         id="path69" />
      <path
         d="m 327.17,138.23 36.137,-20.852"
         id="path70" />
      <path
         d="m 345.67,163.71 30.947,-27.852"
         id="path71" />
      <path
         d="m 369.07,184.79 24.473,-33.668"
         id="path72" />
      <path
         d="m 413.22,162.66 -16.878,37.884"
         id="path73" />
      <path
         d="m 446.21,171.49 -4.3484,41.264"
         id="path74" />
      <path
         d="m 469.03,171.58 4.3176,41.189"
         id="path75" />
      <path
         d="m 491.42,166.98 12.74,39.246"
         id="path76" />
      <path
         d="m 512.36,157.76 20.577,35.663"
         id="path77" />
      <path
         d="m 530.75,144.17 27.669,30.747"
         id="path78" />
      <path
         d="m 546.29,127.38 33.209,24.142"
         id="path79" />
      <path
         d="m 557.67,107.51 37.579,16.744"
         id="path80" />
      <path
         d="m 320.01,124.17 38.272,-17.027"
         id="path81" />
      <path
         d="m 335.75,151.45 33.76,-24.514"
         id="path82" />
      <path
         d="m 356.82,174.86 27.867,-30.933"
         id="path83" />
      <path
         d="m 382.29,193.38 20.821,-36.041"
         id="path84" />
      <path
         d="m 423.88,166.76 -12.827,39.441"
         id="path85" />
    </g>
    <g
       transform="translate(-227.2,90.013)"
       id="g86">
      <path
         d="M 592.76,106.88 C 574.151,164.228 519.992,205.414 456.52,204.748 394.011,204.0912 341.39,163.04 323.18,106.656"
         fill-opacity="0"
         stroke="#000000"
         stroke-miterlimit="2.41"
         stroke-width="4.188"
         id="path86" />
    </g>
    <g
       transform="translate(-227.2,90.013)"
       id="g87">
      <path
         d="M 571.53,100 C 555.848,148.305 510.224,182.996 456.76,182.434 404.1,181.88071 359.766,147.299 344.43,99.801"
         fill-opacity="0"
         stroke="#000000"
         stroke-miterlimit="2.41"
         stroke-width="4.188"
         id="path87" />
    </g>
    <g
       transform="translate(-227.2,90.013)"
       id="g97">
      <path
         d="m 390.12,-41.803 4.8771,-2.9912 c 1.0623,-0.65147 2.0117,-0.88615 2.8483,-0.70406 0.84096,0.17943 1.5474,0.73556 2.1195,1.6682 0.5879,0.95859 0.75806,1.8852 0.51048,2.7798 -0.24344,0.89197 -0.95645,1.7008 -2.1396,2.4264 l -1.6062,0.98515 2.161,3.5235 -2.947,1.8074 -5.8235,-9.4952 m 5.4297,2.2407 0.71893,-0.44094 c 0.56565,-0.34692 0.90334,-0.68771 1.013,-1.0224 0.10731,-0.33911 0.0672,-0.66173 -0.12152,-0.96833 -0.18248,-0.2979 -0.43695,-0.48962 -0.7627,-0.5751 -0.3257,-0.08531 -0.76278,0.03967 -1.3112,0.37623 l -0.83553,0.51244 1.299,2.118"
         id="path88" />
      <path
         d="m 403.25,-42.48 c -0.86806,-1.5979 -1.0988,-3.0838 -0.69222,-4.4576 0.40672,-1.3738 1.4044,-2.4923 2.9934,-3.3555 1.629,-0.885 3.1224,-1.1284 4.4801,-0.73036 1.3552,0.39361 2.4608,1.3783 3.3168,2.9539 0.6214,1.1439 0.93796,2.1883 0.94974,3.133 0.0125,0.93793 -0.23343,1.8099 -0.74061,2.616 -0.50548,0.79917 -1.3012,1.4938 -2.3873,2.0837 -1.1039,0.59968 -2.114,0.92076 -3.0306,0.96326 -0.91206,0.04009 -1.7997,-0.19826 -2.6627,-0.71521 -0.86304,-0.51691 -1.6053,-1.3473 -2.2267,-2.4912 m 3.0317,-1.6297 c 0.53679,0.98813 1.105,1.5989 1.7045,1.8324 0.60398,0.23096 1.222,0.17488 1.854,-0.16845 0.64987,-0.35298 1.038,-0.83769 1.1643,-1.454 0.12653,-0.61629 -0.10815,-1.4719 -0.70265,-2.5668 -0.50055,-0.92136 -1.0526,-1.4919 -1.6562,-1.7116 -0.60155,-0.22653 -1.2206,-0.16695 -1.8571,0.17881 -0.60978,0.3313 -0.98213,0.81314 -1.117,1.4456 -0.13487,0.63246 0.0681,1.4472 0.61008,2.4442"
         id="path89" />
      <path
         d="m 417.91,-43.435 -3.7044,-10.505 5.41,-1.9078 c 1.0032,-0.35385 1.8002,-0.53816 2.3912,-0.55317 0.59087,-0.01461 1.1313,0.15438 1.6212,0.50787 0.48823,0.34897 0.85026,0.85765 1.0862,1.5264 0.20545,0.58281 0.2589,1.1306 0.16077,1.6434 -0.10064,0.50798 -0.32112,0.96999 -0.66332,1.386 -0.21797,0.26487 -0.54907,0.53738 -0.99278,0.81739 0.43239,-0.0079 0.75969,0.02297 0.98201,0.08848 0.14949,0.04485 0.38667,0.16699 0.7105,0.36976 0.32863,0.20102 0.55817,0.36446 0.68854,0.49037 l 2.6432,2.492 -3.6688,1.2938 -2.8661,-2.5987 c -0.36663,-0.33819 -0.65735,-0.53894 -0.87315,-0.6025 -0.29147,-0.07997 -0.58511,-0.06786 -0.88125,0.03716 l -0.28646,0.10109 1.5035,4.2635 -3.2603,1.1497 m 1.0569,-7.3981 1.3686,-0.48264 c 0.14823,-0.05215 0.41799,-0.2011 0.80934,-0.44653 0.1996,-0.11884 0.33531,-0.29009 0.40672,-0.5141 0.0756,-0.22553 0.0739,-0.45306 -0.008,-0.68235 -0.11984,-0.33915 -0.3186,-0.5616 -0.59788,-0.66734 -0.27894,-0.1059 -0.71472,-0.05303 -1.307,0.15471 l -1.4259,0.50285 0.75305,2.1354"
         id="path90" />
      <path
         d="m 426.47,-57.869 10.219,-2.2431 0.58965,2.6865 -3.4287,0.75259 1.7984,8.1933 -3.3619,0.73792 -1.7984,-8.1932 -3.4287,0.75258 -0.5897,-2.6866"
         id="path91" />
      <path
         d="m 439.05,-54.367 c -0.31318,-1.7912 -0.0585,-3.2732 0.76462,-4.4457 0.82325,-1.1725 2.1255,-1.9147 3.9068,-2.2265 1.8261,-0.31957 3.3192,-0.0747 4.4792,0.73563 1.1591,0.80506 1.8932,2.0907 2.2024,3.857 0.22465,1.2823 0.19167,2.3731 -0.0985,3.2723 -0.28604,0.8934 -0.79782,1.6412 -1.5358,2.2435 -0.73385,0.59638 -1.7095,1.0011 -2.9269,1.2142 -1.2374,0.21656 -2.2973,0.19898 -3.1796,-0.05324 -0.87728,-0.25268 -1.6426,-0.76151 -2.2958,-1.5265 -0.65321,-0.76501 -1.0921,-1.7887 -1.3165,-3.071 m 3.393,-0.57838 c 0.19376,1.1077 0.53771,1.8677 1.0315,2.2801 0.49887,0.41156 1.1026,0.55527 1.8111,0.43128 0.7285,-0.1274 1.2508,-0.46318 1.567,-1.0071 0.3161,-0.54386 0.36705,-1.4295 0.152,-2.657 -0.18081,-1.0328 -0.52218,-1.7496 -1.0243,-2.1502 -0.49796,-0.40651 -1.1037,-0.54733 -1.8172,-0.42241 -0.68357,0.1198 -1.1901,0.4577 -1.5195,1.0142 -0.32947,0.55648 -0.39628,1.3935 -0.20044,2.5112"
         id="path92" />
      <path
         d="m 464.68,-61.685 3.584,0.35448 1.7062,8.2238 3.2464,-7.734 3.4782,0.344 -5.2096,10.678 -3.7126,-0.36709 -3.0926,-11.499"
         id="path93" />
      <path
         d="m 479.2,-60.093 9.0168,1.9444 -0.5013,2.3248 -5.6448,-1.2173 -0.37331,1.7306 5.2363,1.1292 -0.47888,2.2208 -5.2363,-1.1292 -0.46284,2.1465 5.8082,1.2525 -0.53174,2.4659 -9.1802,-1.9797 2.3481,-10.889"
         id="path94" />
      <path
         d="m 491.38,-57.358 3.3058,0.95828 -2.3375,8.0639 5.1594,1.4956 -0.76366,2.6345 -8.4653,-2.4539 3.1012,-10.698"
         id="path95" />
      <path
         d="m 502.95,-53.56 3.1515,1.3838 -1.567,3.5689 3.4437,1.5121 1.567,-3.569 3.1654,1.3899 -4.4781,10.199 -3.1654,-1.3899 1.8114,-4.1255 -3.4437,-1.512 -1.8114,4.1255 -3.1515,-1.3838 4.4781,-10.199"
         id="path96" />
      <path
         d="m 513.01,-43.104 c 0.96581,-1.5408 2.1469,-2.4714 3.5434,-2.7917 1.3964,-0.32028 2.8608,-5.63e-4 4.393,0.96016 1.5708,0.98465 2.5162,2.1661 2.836,3.5442 0.32237,1.3739 0.008,2.8205 -0.9448,4.3399 -0.69142,1.103 -1.4458,1.8916 -2.263,2.3657 -0.8103,0.4725 -1.6912,0.68559 -2.6425,0.63925 -0.94439,-0.04806 -1.9402,-0.40012 -2.9874,-1.0566 -1.0644,-0.66721 -1.8402,-1.3896 -2.3272,-2.1672 -0.4828,-0.7749 -0.71088,-1.6652 -0.68432,-2.6708 0.0251,-1.0056 0.38542,-2.06 1.077,-3.163 m 2.9083,1.8409 c -0.59726,0.9528 -0.85039,1.7477 -0.7594,2.3846 0.0952,0.63962 0.4476,1.1504 1.0571,1.5325 0.62661,0.39285 1.2394,0.49292 1.8383,0.30036 0.59888,-0.19254 1.2292,-0.81668 1.8911,-1.8725 0.55688,-0.88844 0.78283,-1.6495 0.67789,-2.2832 -0.0981,-0.63532 -0.45382,-1.1453 -1.0676,-1.53 -0.58799,-0.36864 -1.1906,-0.45634 -1.8078,-0.26341 -0.61718,0.19304 -1.2271,0.77023 -1.8297,1.7316"
         id="path97" />
    </g>
    <g
       transform="translate(-227.2,90.013)"
       id="g104">
      <path
         d="m 457.67,-53.665 4.9303,14.833 16.053,-0.02923 -13.004,9.1379 4.989,14.815 -12.968,-9.1856 -12.968,9.1856 4.989,-14.815 -13.004,-9.1379 16.053,0.02923 z"
         fill="#ffffff"
         stroke="#92801f"
         stroke-miterlimit="2.414"
         stroke-width="0.6282"
         id="path98" />
      <g
         transform="matrix(3.5332,0,0,3.5391,324.6,-82.979)"
         fill="#d7d7d7"
         stroke="#818181"
         stroke-width="0.059217"
         id="g103">
        <path
           d="M 38.988,12.564 37.6579,8.5632 37.63448,14.3813 Z"
           id="path99" />
        <path
           d="m 39.815,15.022 3.5018,-2.466 -5.685,1.8223 z"
           id="path100" />
        <path
           d="m 37.66,16.541 3.4982,2.4796 -3.5249,-4.6436 z"
           id="path101" />
        <path
           d="m 35.511,15.021 -1.3448,3.9878 3.4696,-4.6331 z"
           id="path102" />
        <path
           d="M 36.334,12.562 32.0126,12.5543 37.6362,14.38 Z"
           id="path103" />
      </g>
      <circle
         cx="457.60001"
         cy="-32.099998"
         r="2.2874999"
         stroke-miterlimit="2.414"
         stroke-width="0.057426"
         id="circle103" />
    </g>
    <g
       transform="translate(-227.2,90.013)"
       id="g105">
      <path
         d="m 545.37,96.148 c 3.9104,3.5361 5.3175,8.3317 5.5958,12.78 3.0805,-2.3633 8.0716,-3.7037 13.595,-2.4141 -5.4782,5.657 -9.5801,4.6946 -13.595,2.4141 -4.6532,1.1241 -6.5172,-3.1344 -5.5958,-12.78 z m 3.8966,-5.6226 c 3.9122,3.5361 5.3174,8.3317 5.5958,12.78 3.0806,-2.3634 8.0716,-3.7037 13.595,-2.412 -5.4781,5.6549 -9.5801,4.6924 -13.595,2.412 -4.6533,1.1262 -6.5172,-3.1344 -5.5958,-12.78 z m 2.1272,-6.1265 c 4.3729,2.8648 6.4478,7.3766 7.3583,11.728 2.707,-2.8342 5.9913,-3.809 11.633,-3.4234 -4.6049,6.4743 -7.3394,5.0297 -11.633,3.4234 -4.4371,1.8614 -6.8899,-2.0481 -7.3583,-11.728 z m 2.0627,-8.1767 c 4.371,2.8648 6.3999,7.1629 7.3124,11.515 2.707,-2.8342 4.0285,-5.8853 10.937,-4.8481 -4.0468,4.7621 -6.8174,7.2521 -11.113,5.6457 -6.5477,1.1084 -5.5303,-5.3282 -7.1364,-12.312 z m 1.6533,-9.0347 c 4.3729,2.8648 6.4019,7.165 7.3124,11.515 2.707,-2.8321 5.0594,-6.6827 11.966,-5.6455 -3.7339,3.919 -8.2018,9.3119 -12.14,6.4432 -6.5497,1.1083 -5.5303,-5.3282 -7.1384,-12.312 z m -0.14406,-7.8558 c 4.371,2.8647 7.4396,5.5509 8.3502,9.9007 2.7089,-2.8321 5.0594,-6.6827 11.968,-5.6455 -3.734,3.919 -8.2018,9.3118 -12.142,6.4452 -6.5477,1.1063 -6.57,-3.7162 -8.1761,-10.7 z m 0.30608,-7.4459 c 4.7514,2.0742 8.1896,4.1952 9.7534,8.3314 2.2375,-3.2609 3.9714,-7.466 10.945,-7.6334 -3.0855,4.5118 -6.6708,10.602 -10.995,8.4515 -6.2936,2.2205 -7.0509,-2.5344 -9.7037,-9.1495 z m 0.0856,-7.96 c 5.0059,1.2281 8.723,2.7287 10.897,6.541 1.7124,-3.6037 2.7796,-8.0503 9.6364,-9.4167 -2.3555,4.9817 -4.9645,11.61 -9.5595,10.233 -5.8713,3.2752 -7.3438,-1.2856 -10.974,-7.3569 z m -2.0332,-6.6411 c 5.1265,0.35118 9.0236,1.1926 11.752,4.5789 1.1373,-3.85 2.1654,-6.5126 8.7221,-9.0435 -1.5636,5.3242 -3.7764,10.403 -8.5223,9.8364 -5.2921,4.2433 -7.4444,-0.0042 -11.952,-5.3718 z m -1.6584,-7.6012 c 5.1265,0.34868 9.0237,1.1905 11.752,4.5789 1.1373,-3.852 1.5824,-7.336 8.1391,-9.8649 -1.5636,5.3222 -3.1952,11.224 -7.9411,10.656 -5.2921,4.2433 -7.4425,-0.0029 -11.95,-5.3697 z m -1.1691,-6.8992 c 5.1246,0.34909 9.0217,1.1906 11.75,4.5789 1.1392,-3.852 1.5824,-7.3381 8.141,-9.8669 -1.5636,5.3222 -3.1953,11.226 -7.9411,10.658 -5.2921,4.2433 -7.4425,-0.0042 -11.95,-5.3697 z m -1.171,-6.9012 c 5.1265,0.35076 9.0236,1.1926 11.752,4.5789 1.1372,-3.85 1.5823,-7.336 8.141,-9.8649 -1.5655,5.3222 -3.1952,11.224 -7.9411,10.658 -5.2921,4.2433 -7.4444,-0.0042 -11.952,-5.3718 z m -3.645,-3.5798 c 4.1936,-1.5631 10.326,-1.5941 12.881,1.7917 1.0711,-3.853 1.4908,-7.3374 7.6406,-9.8723 -1.4701,5.3215 -3.0044,11.227 -7.4543,10.663 -5.9043,2.9687 -7.7015,0.44405 -13.067,-2.5823 z m -1.0181,-3.8737 c 2.246,-1.7683 9.3742,-3.2438 12.198,-0.31109 0.4808,-3.9797 0.4063,-7.492 5.7801,-10.992 -0.65847,5.499 -1.2974,11.583 -5.5038,11.744 -5.0868,3.8865 -10.051,2.6459 -12.474,-0.44154 z m -3.0681,-4.6465 c 3.6863,-2.222 8.4745,-3.9872 11.298,-1.0565 0.4808,-3.9797 0.30275,-7.7562 5.6746,-11.254 -0.65655,5.499 0.13237,11.84 -5.6746,11.254 -5.0868,3.8886 -5.9129,3.1815 -11.298,1.0565 z m -1.7254,-5.3214 c 3.6863,-2.222 7.515,-4.7686 10.337,-1.8359 -1.0468,-3.9113 -0.41933,-8.0873 4.9545,-11.585 -0.65851,5.499 0.8544,12.172 -4.9545,11.585 -5.0868,3.8865 -4.9515,3.9609 -10.337,1.8359 z m -3.1493,-4.5216 c 3.3035,-1.992 6.547,-4.4583 9.077,-1.8298 -0.93921,-3.5065 0.28103,-8.0294 5.0969,-11.165 -0.58861,4.9272 0.46368,12.12 -4.7424,11.596 -4.5577,3.4829 -4.606,3.3043 -9.4316,1.3985 z m -4.6094,-2.6491 c 3.3035,-1.994 6.5471,-4.4604 9.077,-1.8298 -0.93912,-3.5086 0.28103,-8.0315 5.097,-11.167 -0.58866,4.9293 0.46363,12.122 -4.7424,11.596 -4.5577,3.4849 -4.606,3.3043 -9.4316,1.4006 z m 5.8461,-6.7041 c -6.3028,-1.5245 -9.2972,-6.1512 -10.787,-12.189 5.5383,2.6463 9.1341,6.7092 10.787,12.189 z m 0.4962,0.31944 c -0.72453,-5.3127 1.615,-8.934 5.3447,-11.786 -0.26098,5.0376 -2.0439,8.9648 -5.3447,11.786 z m -0.004,0.07433 c -3.6052,4.2042 -7.9685,4.6047 -12.675,3.2838 4.0569,-3.1594 8.2813,-4.2547 12.675,-3.2838 z m -163.19,143.72 4.2707,9.0739 5.2978,-2.791 -6.1386,-8.9256 -3.6991,-24.726 -4.0434,9.6529 2.0062,-20.67 -3.2721,14.707 0.31569,-21.058 -3.9164,12.356 1.4872,-19.959 -3.9057,11.636 1.7774,-16.712 -3.1587,7.147 1.9152,-14.73 -6.2121,7.2774 7.013,-15.366 -6.4853,2.7709 6.4077,-8.8933 -5.287,2.0716 5.2101,-8.3738 -5.2931,2.6112 5.3019,-14.493 -7.532,4.9142 11.378,-12.589 -9.3856,3.9812 10.849,-11.159 -6.806,1.6861 9.752,-5.9561 -9.3458,1.4631 15.429,-11.441 -10.832,-1.2647 15.648,-3.3355 -9.6198,-2.8634 11.405,-3.0475 -8.2756,-2.121 11.894,-1.7778 5.677,-5.4853 -14.805,3.7096 14.136,-15.603 -15.581,10.177 1.0817,-15.644 -6.2614,21.859 0.26475,-17.639 -3.7054,21.001 -0.98852,-13.16 -2.6756,20.119 -2.0635,-9.3963 -2.1728,20.487 -2.6303,-16.788 -2.0016,20.49 -4.1782,-15.373 0.38333,19.629 -3.6176,-7.4415 1.332,12.984 -3.295,-6.3566 2.1526,14.619 -5.1088,-9.8076 3.7504,21.307 -4.9907,-6.3853 5.7215,14.138 -8.1649,-9.4995 7.237,14.885 -8.5604,-5.7261 7.9578,12.017 -6.7728,-4.0332 8.9821,12.272 -10.173,-6.504 9.0732,11.912 -6.0895,-1.5505 15.189,22.867 -13.259,-12.51 14.478,18.068 -10.565,-7.741 10.016,10.432 -8.3937,-5.5433 13.53,13.55 -6.7593,-1.5536 13.551,10.683 z m 167.25,-8.1079 -9.1488,12.466 3.0318,1.4863 8.6407,-12.473 c 4.445,-0.0956 10.967,1.3725 14.805,-4.282 -4.675,-1.064 -9.362,-1.3755 -14.071,-0.0292 0.1662,-3.8975 -0.80074,-7.8118 -2.8969,-11.745 -2.331,5.1888 2.9194,11.189 -0.3612,14.577 z"
         fill="#18b400"
         stroke="#30734e"
         stroke-miterlimit="2.414"
         stroke-width="0.4334"
         id="path104" />
    </g>
    <g
       transform="translate(-227.2,90.013)"
       id="g107">
      <path
         d="m 408.34,25.117 h 9.392 l -0.36245,55.987 -7.2227,55.264 2.7991,-0.0209 8.3975,-45.406 c 4.208,4.5831 8.6025,7.3884 13.142,8.441 l -4.8338,36.986 2.7992,-0.0209 6.7503,-36.501 c 3.0768,-0.09562 6.2116,-0.95925 9.3899,-2.5836 1.6824,0.93858 3.3876,1.6202 5.1135,2.0491 l -4.7406,36.26 2.7619,-0.0209 6.6032,-35.697 0.24679,-0.0042 7.2475,32.554 2.6583,0.17997 -5.9982,-33.235 c 1.8626,-0.42889 3.7439,-1.1292 5.6418,-2.1009 3.2135,1.6969 6.514,2.4511 9.8851,2.277 l 7.318,32.879 2.6582,0.17998 -6.0768,-33.668 c 4.2515,-1.1023 8.5984,-3.6341 13.009,-7.579 l 8.9776,40.325 2.621,0.17831 -8.7642,-48.57 -0.0915,-56.65 11.731,-0.07475 -32.989,-20.692 -8.3311,5.6895 -10.61,-6.6529 -9.3381,6.3752 -10.167,-6.3752 z"
         fill-rule="evenodd"
         id="path105" />
      <path
         d="m 437.95,4.8918 31.411,20.27 h -10.643 v 59.045 l 3.7578,15.143"
         fill="none"
         stroke="#ffd600"
         stroke-miterlimit="2.41"
         stroke-width="0.8376"
         id="path106" />
      <path
         d="m 457.46,4.8904 31.982,20.727 h -10.641 v 59.045 l 3.7563,15.144"
         fill="none"
         stroke="#ffd600"
         stroke-miterlimit="2.41"
         stroke-width="0.8376"
         id="path107" />
    </g>
    <g
       transform="translate(-227.2,90.013)"
       id="g108">
      <path
         d="m 690.47,172.21 c -21.591,-3.3806 -144.34,21.041 -144.25,4.2351 l 0.16578,-20.678 c 27.194,2.7685 119.62,-16.013 142.75,-9.354 0,0 -24.593,6.8664 -31.895,15.891 10.632,0.56289 33.222,9.9061 33.222,9.9061 z"
         fill="#001fb4"
         id="path108" />
    </g>
    <g
       transform="translate(-227.2,90.013)"
       id="g110">
      <path
         d="m 227.2,172.21 c 21.591,-3.3806 144.34,21.041 144.25,4.2351 l -0.16578,-20.678 c -27.194,2.7685 -119.62,-16.013 -142.75,-9.354 0,0 24.593,6.8664 31.895,15.891 -10.632,0.56289 -33.222,9.9061 -33.222,9.9061 z"
         fill="#001fb4"
         id="path109" />
      <path
         d="m 341.21,163.23 c 0.80751,10.884 28.532,-4.243 30.234,13.211 l -0.16578,-20.678 c 0.44985,-18.334 -28.729,-1.1856 -30.08,-27.708 z"
         fill="#031750"
         id="path110" />
    </g>
    <g
       transform="translate(-227.2,90.013)"
       id="g111">
      <path
         d="m 576.45,163.23 c -0.8075,10.884 -28.532,-4.243 -30.234,13.211 l 0.16578,-20.678 c -0.44981,-18.334 28.729,-1.1856 30.08,-27.708 z"
         fill="#031750"
         id="path111" />
    </g>
    <g
       transform="translate(-227.2,90.013)"
       id="g112">
      <path
         d="m 576.45,163.23 c 0,-10.205 -52.659,-18.477 -117.62,-18.477 -64.958,0 -117.62,8.2725 -117.62,18.477 l -0.0125,-35.175 c 4e-5,-8.7155 52.664,-15.781 117.63,-15.781 64.965,0 117.63,7.0653 117.63,15.781 z"
         fill="#001fb4"
         id="path112" />
    </g>
    <g
       transform="translate(-227.2,90.013)"
       id="g116">
      <g
         transform="rotate(6.1407)"
         fill="#ffffff"
         stroke-width="3.9319"
         aria-label="2 DE"
         id="g115">
        <path
           d="m 299.49,141.66 h -17.705 q 0.30426,-2.6224 1.84,-4.9261 1.5503,-2.3182 5.7954,-5.4622 2.5934,-1.927 3.3179,-2.9267 0.72443,-0.99971 0.72443,-1.898 0,-0.97073 -0.72443,-1.6517 -0.70993,-0.69545 -1.7966,-0.69545 -1.1301,0 -1.8545,0.70994 -0.70994,0.70994 -0.95625,2.5065 l -5.9113,-0.47812 q 0.34773,-2.492 1.275,-3.8829 0.92727,-1.4054 2.6079,-2.1443 1.6952,-0.75341 4.6798,-0.75341 3.115,0 4.8392,0.70994 1.7386,0.70994 2.7238,2.1878 0.99971,1.4633 0.99971,3.2889 0,1.9415 -1.1446,3.7091 -1.1301,1.7676 -4.1292,3.8829 -1.7821,1.2315 -2.3906,1.7241 -0.59403,0.49261 -1.4054,1.2895 h 9.2147 z"
           id="path113" />
        <path
           d="m 312.95,120.42 h 9.7508 q 2.8832,0 4.6508,0.78238 1.7821,0.78238 2.9412,2.2457 1.1591,1.46332 1.6807,3.4048 0.5216,1.94148 0.52159,4.1147 0,3.4048 -0.78238,5.2883 -0.76789,1.869 -2.1443,3.144 -1.3764,1.2605 -2.9557,1.6807 -2.1588,0.57954 -3.9119,0.57954 h -9.7508 z m 6.5633,4.8102 v 11.605 h 1.6082 q 2.0574,0 2.9267,-0.44915 0.86931,-0.46363 1.3619,-1.5937 0.49261,-1.1446 0.49261,-3.6946 0,-3.3758 -1.1011,-4.6218 -1.1011,-1.246 -3.6511,-1.246 z"
           id="path114" />
        <path
           d="m 335.93,120.42 h 17.589 v 4.5349 h -11.011 v 3.3758 h 10.214 v 4.3321 h -10.214 v 4.1872 h 11.33 v 4.8102 H 335.93 Z"
           id="path115" />
      </g>
    </g>
    <g
       transform="translate(-227.2,90.013)"
       id="g123">
      <g
         transform="matrix(4.188,0,0,4.188,290.87,-96.233)"
         fill="#ffffff"
         stroke-width="1.8869"
         aria-label="OUTUBRO"
         id="g122">
        <path
           d="m 18.977,54.831 c -0.09639,-0.87683 0.07365,-1.5864 0.51642,-2.1281 0.44234,-0.5412 1.1091,-0.85812 1.9962,-0.9439 0.90946,-0.08795 1.6332,0.0911 2.1655,0.5309 0.53262,0.4378 0.8318,1.0912 0.90358,1.9584 0.0521,0.62936 -0.01182,1.1552 -0.18961,1.577 -0.17564,0.4193 -0.45234,0.75859 -0.82988,1.0191 -0.37539,0.25789 -0.85722,0.41396 -1.4474,0.47064 -0.59985,0.05761 -1.1061,0.01127 -1.5207,-0.14105 -0.41204,-0.15255 -0.76315,-0.424 -1.0537,-0.81519 -0.2905,-0.39105 -0.47147,-0.90026 -0.54046,-1.5278 z m 1.6647,-0.16892 c 0.05531,0.5426 0.19541,0.92243 0.41892,1.1394 0.22608,0.21687 0.51135,0.30826 0.85684,0.27496 0.35522,-0.03424 0.61923,-0.17605 0.79283,-0.42657 0.17347,-0.25032 0.23349,-0.67674 0.17872,-1.2787 -0.0461,-0.5067 -0.18287,-0.86676 -0.41167,-1.0802 -0.22642,-0.21596 -0.51675,-0.30729 -0.86993,-0.27316 -0.33835,0.0327 -0.59829,0.17838 -0.77897,0.43608 -0.18079,0.25787 -0.24258,0.66046 -0.18676,1.2081 z"
           id="path116" />
        <path
           d="m 28.813,51.275 c 0.5633,-0.03413 1.1268,-0.06586 1.6905,-0.09517 l 0.16748,3.2178 c 0.01661,0.31907 -0.01797,0.6236 -0.10303,0.91358 -0.08276,0.28741 -0.22428,0.54355 -0.42407,0.76873 -0.19751,0.22261 -0.40873,0.38356 -0.63418,0.48296 -0.31326,0.13904 -0.69358,0.22243 -1.1419,0.2514 -0.25934,0.01676 -0.54401,0.01719 -0.85438,0.0016 -0.30793,-0.01572 -0.56876,-0.06971 -0.78285,-0.16256 -0.21423,-0.09528 -0.41515,-0.23682 -0.60299,-0.42471 -0.18541,-0.18808 -0.3183,-0.38608 -0.39824,-0.59437 -0.12903,-0.33518 -0.20427,-0.63485 -0.22499,-0.89955 l -0.25152,-3.2123 c 0.56239,-0.04407 1.125,-0.08581 1.6879,-0.1252 l 0.23028,3.2916 c 0.02058,0.29421 0.11752,0.51904 0.29008,0.67467 0.1749,0.15306 0.40593,0.21987 0.69371,0.20108 0.28535,-0.01863 0.50335,-0.11354 0.65456,-0.28544 0.15344,-0.17444 0.22147,-0.41127 0.20333,-0.71056 -0.06653,-1.0979 -0.13306,-2.1958 -0.1996,-3.2936 z"
           id="path117" />
        <path
           d="m 31.241,51.143 c 1.7176,-0.08284 3.4367,-0.14305 5.1565,-0.17973 l 0.02861,1.334 c -0.57295,0.01225 -1.1458,0.02714 -1.7186,0.04461 l 0.12433,4.0677 c -0.54961,0.01686 -1.0992,0.03615 -1.6488,0.05785 l -0.16021,-4.0667 c -0.57261,0.02253 -1.1451,0.04763 -1.7175,0.07525 z"
           id="path118" />
        <path
           d="m 40.741,50.921 c 0.56482,0.0012 1.1297,0.005 1.6945,0.01141 l -0.03632,3.2204 c -0.0036,0.31933 -0.05732,0.62092 -0.16042,0.90482 -0.10063,0.28148 -0.25782,0.52807 -0.47107,0.74015 -0.21081,0.20966 -0.43134,0.35698 -0.66218,0.44206 -0.32081,0.11914 -0.70488,0.17865 -1.1534,0.1798 -0.25943,6.67e-4 -0.54308,-0.01647 -0.8514,-0.05107 -0.30587,-0.03462 -0.56247,-0.10445 -0.77016,-0.21018 -0.20768,-0.10817 -0.3993,-0.26165 -0.57511,-0.46058 -0.17338,-0.19897 -0.29385,-0.40463 -0.3609,-0.61734 -0.10831,-0.34232 -0.16517,-0.64594 -0.16978,-0.91134 l -0.05586,-3.221 c 0.56461,-0.0097 1.1293,-0.01689 1.694,-0.02148 l 0.02724,3.2985 c 0.0024,0.29482 0.08529,0.52511 0.24778,0.69101 0.16497,0.16349 0.39118,0.24439 0.67925,0.24346 0.28563,-9.25e-4 0.50886,-0.08206 0.67031,-0.24415 0.16384,-0.16448 0.24646,-0.3965 0.24704,-0.69622 z"
           id="path119" />
        <path
           d="m 43.564,50.949 c 1.0597,0.01873 2.1193,0.04687 3.1787,0.08463 0.52978,0.01888 0.9309,0.16455 1.2015,0.43414 0.27327,0.26984 0.40026,0.5953 0.38314,0.97558 -0.01436,0.31896 -0.12698,0.58793 -0.33667,0.80748 -0.13981,0.14638 -0.3395,0.25831 -0.59908,0.33646 0.38533,0.10877 0.66371,0.28213 0.83508,0.51842 0.17401,0.23405 0.2524,0.5229 0.23642,0.86639 -0.01301,0.27968 -0.0894,0.52814 -0.22836,0.74555 -0.13898,0.21743 -0.32273,0.38627 -0.55121,0.50692 -0.14163,0.07518 -0.3523,0.1254 -0.63229,0.15152 -0.37302,0.03491 -0.61849,0.05108 -0.74015,0.04694 -0.94689,-0.03222 -1.8943,-0.0565 -2.842,-0.07302 z m 1.6556,2.1563 c 0.2432,0.0066 0.48639,0.01375 0.72956,0.02139 0.26169,0.0082 0.44457,-0.02973 0.54891,-0.1146 0.10687,-0.08723 0.16346,-0.21547 0.16946,-0.38484 0.0056,-0.1571 -0.04211,-0.2817 -0.14327,-0.37367 -0.09868,-0.09189 -0.27601,-0.14222 -0.53179,-0.15028 -0.24833,-0.0078 -0.49667,-0.01512 -0.74503,-0.02189 z m -0.05769,2.1215 c 0.28171,0.0076 0.5634,0.01598 0.84504,0.025 0.2853,0.0091 0.48814,-0.03408 0.60886,-0.13055 0.12081,-0.09892 0.18451,-0.2342 0.19082,-0.40601 0.0059,-0.15954 -0.0482,-0.28936 -0.16247,-0.38928 -0.11172,-0.10229 -0.31373,-0.15859 -0.60577,-0.16796 -0.28222,-0.0091 -0.56447,-0.01741 -0.84674,-0.02508 z"
           id="path120" />
        <path
           d="m 49.274,56.55 0.27947,-5.3935 c 0.94279,0.0489 1.8853,0.10558 2.8274,0.17017 0.52394,0.03592 0.92162,0.10989 1.1914,0.21894 0.27002,0.10913 0.48013,0.29073 0.62994,0.54414 0.15004,0.25102 0.21049,0.54792 0.18259,0.89064 -0.02431,0.29862 -0.10957,0.55167 -0.25494,0.75925 -0.1452,0.20517 -0.33459,0.36627 -0.56814,0.48377 -0.14888,0.07477 -0.34904,0.13093 -0.60066,0.16911 0.19357,0.08068 0.33307,0.15778 0.41853,0.23076 0.05778,0.0487 0.13871,0.14977 0.24224,0.30312 0.10596,0.15352 0.17521,0.2712 0.20797,0.35258 0.22565,0.54138 0.44866,1.0832 0.66902,1.6255 -0.61747,-0.05199 -1.2353,-0.10038 -1.8534,-0.14521 -0.25239,-0.56987 -0.50784,-1.1392 -0.7663,-1.7079 -0.09795,-0.2207 -0.18917,-0.3658 -0.27308,-0.43525 -0.11446,-0.09114 -0.24773,-0.14155 -0.39958,-0.15108 -0.04898,-0.0031 -0.09796,-0.0061 -0.14695,-0.0092 l -0.13534,2.1877 c -0.54984,-0.034 -1.0999,-0.06523 -1.6502,-0.09371 z m 1.8485,-3.1125 c 0.23533,0.01456 0.47064,0.02962 0.70591,0.04517 0.07649,0.0051 0.22567,-0.0097 0.44846,-0.04359 0.1124,-0.01442 0.20628,-0.06447 0.28173,-0.15025 0.07791,-0.08561 0.12114,-0.18716 0.1295,-0.30475 0.01237,-0.17393 -0.03378,-0.31142 -0.13873,-0.41233 -0.10495,-0.10091 -0.31128,-0.16212 -0.61878,-0.18251 -0.24674,-0.01636 -0.49351,-0.03217 -0.74031,-0.04745 z"
           id="path121" />
        <path
           d="m 54.92,54.233 c 0.07499,-0.87865 0.37905,-1.5417 0.9201,-1.9867 0.54037,-0.44444 1.259,-0.62476 2.1489,-0.53334 0.91231,0.09372 1.5887,0.41402 2.0232,0.95149 0.43545,0.53574 0.59684,1.2358 0.49235,2.0994 -0.07582,0.62668 -0.24437,1.1288 -0.50274,1.506 -0.2558,0.37531 -0.59384,0.65207 -1.0142,0.83196 -0.41772,0.17776 -0.91853,0.23495 -1.5055,0.17419 -0.59661,-0.06175 -1.0816,-0.2061 -1.4567,-0.4362 -0.37266,-0.22982 -0.6631,-0.56407 -0.87166,-1.0039 -0.20846,-0.43967 -0.28748,-0.97412 -0.23382,-1.6029 z m 1.665,0.15822 c -0.05199,0.54266 0.01095,0.94244 0.18706,1.1989 0.17869,0.25688 0.43962,0.40241 0.78391,0.4379 0.35399,0.03649 0.64006,-0.05014 0.85954,-0.26111 0.21926,-0.21076 0.36291,-0.61657 0.42908,-1.2171 0.0557,-0.50554 -0.0066,-0.88543 -0.18879,-1.14 -0.17928,-0.25655 -0.44629,-0.40368 -0.79991,-0.44002 -0.33877,-0.03482 -0.62283,0.0568 -0.85082,0.2739 -0.22818,0.21727 -0.36758,0.59974 -0.42007,1.1475 z"
           id="path122" />
      </g>
    </g>
    <g
       transform="translate(-227.2,90.013)"
       id="g127">
      <g
         transform="rotate(-6.0103)"
         fill="#ffffff"
         stroke-width="3.7947"
         aria-label="1914"
         id="g126">
        <path
           d="m 571.93,216.95 v 20.849 h -5.761 v -13.661 q -1.3983,1.0627 -2.7127,1.7199 -1.3004,0.6572 -3.272,1.2585 v -4.6703 q 2.9084,-0.93685 4.5165,-2.2512 1.608,-1.3144 2.5169,-3.244 z"
           id="path123" />
        <path
           d="m 578.37,233.19 5.6631,-0.71313 q 0.22373,1.1886 0.75508,1.678 0.53135,0.4894 1.3004,0.4894 1.3703,0 2.1394,-1.3843 0.55932,-1.0208 0.83898,-4.3207 -1.0208,1.0487 -2.0974,1.5381 -1.0767,0.48941 -2.489,0.48941 -2.7546,0 -4.6563,-1.9576 -1.8877,-1.9576 -1.8877,-4.95 0,-2.0415 0.96482,-3.7195 0.96482,-1.678 2.6568,-2.5309 1.6919,-0.86694 4.2508,-0.86694 3.0762,0 4.936,1.0627 1.8597,1.0487 2.9644,3.3559 1.1186,2.2932 1.1186,6.0686 0,5.5512 -2.3352,8.138 -2.3351,2.5729 -6.4741,2.5729 -2.447,0 -3.8593,-0.55932 -1.4123,-0.5733 -2.3491,-1.664 -0.93685,-1.0907 -1.4402,-2.7267 z m 10.487,-9.1448 q 0,-1.664 -0.83897,-2.6008 -0.83897,-0.95083 -2.0415,-0.95083 -1.1326,0 -1.8877,0.85295 -0.74109,0.85296 -0.74109,2.5589 0,1.7199 0.76906,2.6288 0.78304,0.90889 1.9436,0.90889 1.2025,0 1.9996,-0.88092 0.79702,-0.88092 0.79702,-2.5169 z"
           id="path124" />
        <path
           d="m 610.13,216.95 v 20.849 h -5.761 v -13.661 q -1.3983,1.0627 -2.7127,1.7199 -1.3004,0.6572 -3.272,1.2585 v -4.6703 q 2.9084,-0.93685 4.5165,-2.2512 1.608,-1.3144 2.5169,-3.244 z"
           id="path125" />
        <path
           d="m 626.11,233.96 h -10.375 v -4.6843 l 10.375,-12.333 h 4.9639 v 12.599 h 2.5728 v 4.4186 h -2.5728 v 3.8313 H 626.11 Z m 0,-4.4186 v -6.4461 l -5.4813,6.4461 z"
           id="path126" />
      </g>
    </g>
  </g>
</svg>
