<svg width="1500" height="982" viewBox="0 0 1500 982" fill="none" xmlns="http://www.w3.org/2000/svg">
<path d="M746.584 3.2984L792.769 51.2737L746.646 492.884L746.343 952.724L698.034 949.847L746.213 492.889L746.584 3.2984Z" fill="url(#paint0_linear_1_325)"/>
<path d="M848.382 14.0416L883.584 70.568L746.659 492.946L650.783 942.198L604.219 929.911L746.238 492.866L848.382 14.0416Z" fill="url(#paint1_linear_1_325)"/>
<path d="M945.68 45.7045L968.364 108.315L746.636 493.004L559.52 912.403L516.658 890.428L746.241 492.852L945.68 45.7045Z" fill="url(#paint2_linear_1_325)"/>
<path d="M1034.3 96.9112L1043.47 162.869L746.613 493.066L476.712 864.221L439.581 833.708L746.264 492.827L1034.3 96.9112Z" fill="url(#paint3_linear_1_325)"/>
<path d="M382.65 165.13L449.207 162.909L746.536 492.684L1088.06 801.251L1054.05 835.084L746.257 493.004L382.65 165.13Z" fill="url(#paint4_linear_1_325)"/>
<path d="M458.739 96.6781L524.303 108.342L746.578 492.74L1016.77 865.417L976.135 891.474L746.235 492.992L458.739 96.6781Z" fill="url(#paint5_linear_1_325)"/>
<path d="M280.787 341.401L340.684 312.302L746.452 492.637L1211.99 644.444L1173.64 664.466L1166.47 680.332L746.329 493.048L280.787 341.401Z" fill="url(#paint6_linear_1_325)"/>
<path d="M259.449 441.516L311.987 400.599L746.377 492.632L1233.29 544.331L1180.74 585.247L746.322 493.056L259.449 441.516Z" fill="url(#paint7_linear_1_325)"/>
<path d="M322.458 247.921L387.098 231.91L746.5 492.657L1144.56 723.481L1118.4 763.666L746.278 493.033L322.458 247.921Z" fill="url(#paint8_linear_1_325)"/>
<path d="M547.392 45.5524L609.099 70.5887L746.623 492.772L933.172 913.37L888.166 930.232L746.235 492.927L547.392 45.5524Z" fill="url(#paint9_linear_1_325)"/>
<path d="M644.754 13.9606L699.907 51.2769L746.659 492.823L841.842 942.82L794.32 950.238L746.241 492.923L644.754 13.9606Z" fill="url(#paint10_linear_1_325)"/>
<path d="M1110.39 165.47L1105.64 231.894L746.596 493.124L405.617 799.817L375.483 762.594L746.282 492.807L1110.39 165.47Z" fill="url(#paint11_linear_1_325)"/>
<path d="M1170.52 248.3L1152.06 312.287L746.555 493.166L349.561 722.409L327.97 679.453L746.333 492.797L1170.52 248.3Z" fill="url(#paint12_linear_1_325)"/>
<path d="M1212.09 341.8L1180.74 400.55L746.48 493.192L280.65 644.047L312 585.296L746.358 492.787L1212.09 341.8Z" fill="url(#paint13_linear_1_325)"/>
<path d="M1233.33 441.921L1190.45 492.871L746.413 493.211L259.407 543.925L302.286 492.974L746.358 492.784L1233.33 441.921Z" fill="url(#paint14_linear_1_325)"/>
<path d="M746.131 3.2984L699.946 51.2737L746.069 492.884L746.372 952.724L794.681 949.847L746.502 492.889L746.131 3.2984Z" fill="#F6D852"/>
<path d="M644.365 14.0416L609.163 70.568L746.089 492.946L841.965 942.198L888.528 929.911L746.51 492.866L644.365 14.0416Z" fill="#F6D852"/>
<path d="M547.035 45.7045L524.351 108.315L746.079 493.004L933.194 912.403L976.057 890.428L746.474 492.852L547.035 45.7045Z" fill="#F6D852"/>
<path d="M458.415 96.9112L449.242 162.869L746.102 493.066L1016 864.221L1053.13 833.708L746.451 492.827L458.415 96.9112Z" fill="#F6D852"/>
<path d="M1110.07 165.13L1043.51 162.909L746.182 492.684L404.654 801.251L438.671 835.084L746.461 493.004L1110.07 165.13Z" fill="#F6D852"/>
<path d="M1033.98 96.6781L968.413 108.342L746.137 492.74L475.942 865.417L516.58 891.474L746.48 492.992L1033.98 96.6781Z" fill="#F6D852"/>
<path d="M1211.96 341.401L1152.06 312.302L746.296 492.637L280.757 644.444L319.107 664.466L326.275 680.332L746.419 493.048L1211.96 341.401Z" fill="#F6D852"/>
<path d="M1233.3 441.516L1180.76 400.599L746.371 492.632L259.462 544.331L312.003 585.247L746.426 493.056L1233.3 441.516Z" fill="#F6D852"/>
<path d="M1170.29 247.921L1105.65 231.91L746.247 492.657L348.186 723.481L374.343 763.666L746.47 493.033L1170.29 247.921Z" fill="#F6D852"/>
<path d="M945.356 45.5524L883.649 70.5887L746.124 492.772L559.575 913.37L604.582 930.232L746.513 492.927L945.356 45.5524Z" fill="#F6D852"/>
<path d="M847.994 13.9606L792.84 51.2769L746.089 492.823L650.906 942.82L698.428 950.238L746.507 492.923L847.994 13.9606Z" fill="#F6D852"/>
<path d="M382.358 165.47L387.106 231.894L746.151 493.124L1087.13 799.817L1117.26 762.594L746.465 492.807L382.358 165.47Z" fill="#F6D852"/>
<path d="M322.231 248.3L340.684 312.287L746.193 493.166L1143.19 722.409L1164.78 679.453L746.414 492.797L322.231 248.3Z" fill="#F6D852"/>
<path d="M280.657 341.8L312.007 400.55L746.267 493.192L1212.1 644.047L1180.75 585.296L746.39 492.787L280.657 341.8Z" fill="#F6D852"/>
<path d="M259.417 441.921L302.296 492.871L746.335 493.211L1233.34 543.925L1190.46 492.974L746.39 492.784L259.417 441.921Z" fill="#F6D852"/>
<path d="M792.724 51.5036L699.613 935.049" stroke="#CBB023" stroke-width="0.8376"/>
<path d="M699.83 51.4808L792.452 935.091" stroke="#CBB023" stroke-width="0.8376"/>
<path d="M609.008 70.7623L883.315 915.777" stroke="#CBB023" stroke-width="0.8376"/>
<path d="M524.144 108.512L968.15 878.053" stroke="#CBB023" stroke-width="0.8376"/>
<path d="M448.993 163.077L1043.3 823.469" stroke="#CBB023" stroke-width="0.8376"/>
<path d="M386.859 232.072L1105.47 754.467" stroke="#CBB023" stroke-width="0.8376"/>
<path d="M340.395 312.485L1151.93 674.056" stroke="#CBB023" stroke-width="0.8376"/>
<path d="M311.676 400.8L1180.65 585.756" stroke="#CBB023" stroke-width="0.8376"/>
<path d="M301.93 493.153L1190.36 493.398" stroke="#CBB023" stroke-width="0.8376"/>
<path d="M311.611 585.516L1180.68 401.039" stroke="#CBB023" stroke-width="0.8376"/>
<path d="M340.298 673.851L1152.03 312.701" stroke="#CBB023" stroke-width="0.8376"/>
<path d="M386.697 754.28L1105.6 232.273" stroke="#CBB023" stroke-width="0.8376"/>
<path d="M448.831 823.31L1043.5 163.242" stroke="#CBB023" stroke-width="0.8376"/>
<path d="M523.949 877.933L968.377 108.652" stroke="#CBB023" stroke-width="0.8376"/>
<path d="M883.545 70.8367L608.771 915.722" stroke="#CBB023" stroke-width="0.8376"/>
<path d="M848.091 13.4977L650.556 943.085" stroke="#CBB023" stroke-width="0.8376"/>
<path d="M746.131 2.7868L746.185 952.384" stroke="#CBB023" stroke-width="0.8376"/>
<path d="M644.139 13.5106L841.758 942.969" stroke="#CBB023" stroke-width="0.8376"/>
<path d="M546.615 45.2028L933.052 913.012" stroke="#CBB023" stroke-width="0.8376"/>
<path d="M457.833 96.4774L1016.65 865.532" stroke="#CBB023" stroke-width="0.8376"/>
<path d="M381.646 165.094L1088.15 801.17" stroke="#CBB023" stroke-width="0.8376"/>
<path d="M321.357 248.054L1144.94 723.468" stroke="#CBB023" stroke-width="0.8376"/>
<path d="M279.654 341.732L1212.64 644.821" stroke="#CBB023" stroke-width="0.8376"/>
<path d="M258.348 442.034L1233.95 544.522" stroke="#CBB023" stroke-width="0.8376"/>
<path d="M258.348 544.574L1233.95 441.979" stroke="#CBB023" stroke-width="0.8376"/>
<path d="M279.686 644.872L1212.64 341.683" stroke="#CBB023" stroke-width="0.8376"/>
<path d="M349.623 722.257L1170.9 248.009" stroke="#CBB023" stroke-width="0.8376"/>
<path d="M405.638 799.933L1110.65 165.055" stroke="#CBB023" stroke-width="0.8376"/>
<path d="M476.645 864.27L1034.43 96.445" stroke="#CBB023" stroke-width="0.8376"/>
<path d="M945.615 45.1801L559.436 912.698" stroke="#CBB023" stroke-width="0.8376"/>
<path d="M746.293 2L699.865 51.4744L644.168 12.727L609.021 70.7558L546.465 44.4298L524.165 108.523L457.53 95.7575L449.028 163.082L381.173 164.459L386.867 232.076L320.789 247.516L340.414 312.484L278.996 341.352L311.678 400.812L257.597 441.784L301.958 493.165L257.571 544.492L311.627 585.515L278.892 644.972L321.664 665.074C321.69 665.142 321.718 665.196 321.745 665.259C388.998 832.028 551.516 950.534 742.536 952.541C937.439 954.589 1105.14 834.729 1173.4 663.99L1213.36 645.213L1180.65 585.753L1234.74 544.755L1190.4 493.399L1234.76 442.073L1180.71 401.049L1213.44 341.589L1152.05 312.721L1171.7 247.753L1105.62 232.26L1111.34 164.644L1043.51 163.24L1035.04 95.9153L968.405 108.628L946.131 44.5348L883.572 70.8342L848.455 12.7795L792.731 51.501L746.293 2Z" stroke="#92801F" stroke-width="1.6752"/>
<path d="M672.599 838.949L644.636 970.351" stroke="black" stroke-width="2.094"/>
<path d="M746.066 846.947L746.04 981.039" stroke="black" stroke-width="2.094"/>
<path d="M819.695 839.727L847.441 970.413" stroke="black" stroke-width="2.094"/>
<path d="M890.248 817.126L944.443 938.928" stroke="black" stroke-width="2.094"/>
<path d="M954.066 779.6L1032.76 887.971" stroke="black" stroke-width="2.094"/>
<path d="M1009.79 730.773L1108.56 819.749" stroke="black" stroke-width="2.094"/>
<path d="M1053.18 670.613L1168.52 737.245" stroke="black" stroke-width="2.094"/>
<path d="M323.689 737.054L440.695 669.539" stroke="black" stroke-width="2.094"/>
<path d="M383.589 819.555L483.791 729.374" stroke="black" stroke-width="2.094"/>
<path d="M459.354 887.809L538.594 778.797" stroke="black" stroke-width="2.094"/>
<path d="M602.306 816.155L547.657 938.818" stroke="black" stroke-width="2.094"/>
<path d="M709.122 844.745L695.043 978.352" stroke="black" stroke-width="2.094"/>
<path d="M783.01 845.037L796.99 978.401" stroke="black" stroke-width="2.094"/>
<path d="M855.506 830.142L896.756 957.215" stroke="black" stroke-width="2.094"/>
<path d="M923.306 800.289L989.932 915.761" stroke="black" stroke-width="2.094"/>
<path d="M982.85 756.287L1072.44 855.841" stroke="black" stroke-width="2.094"/>
<path d="M1033.17 701.924L1140.69 780.092" stroke="black" stroke-width="2.094"/>
<path d="M1070.01 637.587L1191.69 691.802" stroke="black" stroke-width="2.094"/>
<path d="M300.505 691.53L424.424 636.399" stroke="black" stroke-width="2.094"/>
<path d="M351.469 779.859L460.779 700.486" stroke="black" stroke-width="2.094"/>
<path d="M419.691 855.657L509.92 755.5" stroke="black" stroke-width="2.094"/>
<path d="M502.159 915.622L569.574 798.926" stroke="black" stroke-width="2.094"/>
<path d="M636.821 829.43L595.289 957.134" stroke="black" stroke-width="2.094"/>
<path d="M1183.63 635.547C1123.38 821.232 948.017 954.586 742.504 952.43C540.11 950.303 369.73 817.385 310.769 634.822" stroke="black" stroke-width="4.188" stroke-miterlimit="2.41"/>
<path d="M1114.89 613.271C1064.11 769.676 916.39 882 743.282 880.18C572.776 878.389 429.229 766.418 379.573 612.627" stroke="black" stroke-width="4.188" stroke-miterlimit="2.41"/>
<path d="M527.511 154.134L543.302 144.449C546.742 142.339 549.816 141.58 552.525 142.169C555.248 142.75 557.535 144.551 559.387 147.57C561.291 150.674 561.842 153.674 561.04 156.571C560.252 159.459 557.943 162.078 554.113 164.427L548.912 167.617L555.909 179.026L546.367 184.878L527.511 154.134ZM545.092 161.389L547.42 159.961C549.251 158.838 550.345 157.734 550.7 156.651C551.047 155.553 550.917 154.508 550.306 153.515C549.715 152.551 548.891 151.93 547.837 151.653C546.782 151.377 545.367 151.782 543.591 152.872L540.886 154.531L545.092 161.389Z" fill="black"/>
<path d="M570.024 151.942C567.214 146.768 566.466 141.957 567.783 137.509C569.1 133.06 572.33 129.439 577.475 126.644C582.75 123.779 587.585 122.99 591.981 124.279C596.369 125.554 599.949 128.742 602.72 133.844C604.732 137.547 605.757 140.929 605.796 143.988C605.836 147.025 605.04 149.848 603.398 152.458C601.761 155.046 599.184 157.295 595.668 159.205C592.094 161.146 588.823 162.186 585.855 162.324C582.902 162.453 580.028 161.682 577.234 160.008C574.439 158.334 572.036 155.645 570.024 151.942ZM579.84 146.665C581.578 149.864 583.418 151.842 585.359 152.598C587.315 153.346 589.316 153.164 591.362 152.053C593.466 150.91 594.723 149.34 595.132 147.345C595.542 145.349 594.782 142.579 592.857 139.034C591.236 136.051 589.449 134.203 587.494 133.492C585.547 132.758 583.542 132.951 581.481 134.071C579.507 135.144 578.301 136.704 577.865 138.752C577.428 140.799 578.085 143.437 579.84 146.665Z" fill="black"/>
<path d="M617.491 148.85L605.497 114.836L623.013 108.659C626.262 107.513 628.842 106.916 630.756 106.868C632.669 106.82 634.419 107.367 636.005 108.512C637.586 109.642 638.758 111.289 639.522 113.454C640.187 115.341 640.36 117.115 640.043 118.775C639.717 120.42 639.003 121.916 637.895 123.263C637.189 124.121 636.117 125.003 634.68 125.91C636.08 125.884 637.14 125.984 637.86 126.196C638.344 126.341 639.112 126.737 640.16 127.393C641.224 128.044 641.968 128.573 642.39 128.981L650.948 137.05L639.069 141.239L629.789 132.825C628.602 131.73 627.661 131.08 626.962 130.874C626.018 130.615 625.067 130.654 624.109 130.994L623.181 131.322L628.049 145.126L617.491 148.85ZM620.915 124.895L625.346 123.332C625.826 123.163 626.7 122.681 627.967 121.886C628.613 121.501 629.052 120.947 629.284 120.222C629.528 119.491 629.523 118.755 629.258 118.012C628.87 116.914 628.226 116.194 627.322 115.852C626.419 115.509 625.008 115.68 623.09 116.352L618.473 117.981L620.911 124.895" fill="black"/>
<path d="M645.207 102.114L678.295 94.8516L680.204 103.55L669.102 105.987L674.925 132.516L664.04 134.905L658.217 108.376L647.115 110.813L645.207 102.114Z" fill="black"/>
<path d="M685.939 113.453C684.925 107.654 685.75 102.855 688.415 99.0589C691.081 95.2625 695.297 92.8594 701.065 91.8498C706.977 90.8151 711.812 91.6079 715.568 94.2317C719.321 96.8383 721.698 101.001 722.699 106.72C723.426 110.872 723.319 114.404 722.38 117.315C721.454 120.208 719.797 122.629 717.407 124.579C715.031 126.51 711.872 127.821 707.93 128.511C703.924 129.212 700.492 129.155 697.635 128.338C694.795 127.52 692.317 125.873 690.202 123.396C688.087 120.919 686.666 117.605 685.939 113.453ZM696.925 111.58C697.553 115.166 698.666 117.627 700.265 118.962C701.88 120.295 703.835 120.76 706.129 120.359C708.488 119.946 710.179 118.859 711.203 117.098C712.226 115.337 712.391 112.469 711.695 108.495C711.11 105.151 710.004 102.83 708.378 101.533C706.766 100.217 704.805 99.7607 702.495 100.165C700.281 100.553 698.641 101.647 697.575 103.449C696.508 105.251 696.291 107.961 696.925 111.58Z" fill="black"/>
<path d="M768.925 89.7588L780.53 90.9065L786.054 117.534L796.566 92.4924L807.828 93.6063L790.96 128.18L778.939 126.991L768.925 89.7588Z" fill="black"/>
<path d="M815.939 94.9135L845.134 101.209L843.511 108.736L825.234 104.795L824.025 110.398L840.98 114.055L839.429 121.245L822.475 117.589L820.976 124.539L839.782 128.595L838.06 136.579L808.336 130.169L815.939 94.9135Z" fill="black"/>
<path d="M855.376 103.769L866.08 106.872L858.511 132.981L875.217 137.824L872.744 146.354L845.335 138.409L855.376 103.769Z" fill="black"/>
<path d="M892.838 116.066L903.042 120.547L897.969 132.102L909.119 136.998L914.193 125.443L924.442 129.943L909.942 162.966L899.693 158.465L905.558 145.108L894.408 140.212L888.543 153.57L878.339 149.089L892.838 116.066Z" fill="black"/>
<path d="M925.411 149.921C928.538 144.932 932.362 141.919 936.884 140.882C941.405 139.845 946.147 140.88 951.108 143.991C956.194 147.179 959.255 151.005 960.29 155.467C961.334 159.915 960.316 164.599 957.231 169.519C954.992 173.09 952.55 175.643 949.904 177.178C947.28 178.708 944.428 179.398 941.348 179.248C938.29 179.093 935.066 177.953 931.675 175.827C928.229 173.667 925.717 171.328 924.14 168.81C922.577 166.301 921.838 163.418 921.924 160.162C922.006 156.906 923.172 153.493 925.411 149.921ZM934.828 155.882C932.894 158.967 932.075 161.54 932.369 163.603C932.677 165.674 933.819 167.327 935.792 168.565C937.821 169.837 939.805 170.161 941.744 169.537C943.683 168.914 945.724 166.893 947.867 163.474C949.67 160.598 950.402 158.133 950.062 156.082C949.745 154.024 948.593 152.373 946.605 151.128C944.702 149.934 942.75 149.65 940.752 150.275C938.754 150.9 936.779 152.769 934.828 155.882Z" fill="black"/>
<path d="M746.228 115.726L762.192 163.753L814.169 163.659L772.064 193.246L788.218 241.215L746.229 211.473L704.241 241.215L720.394 193.246L678.289 163.659L730.266 163.753L746.228 115.726Z" fill="white" stroke="#92801F" stroke-width="0.6282" stroke-miterlimit="2.414"/>
<path d="M761.389 164.784L746.173 118.938L745.905 185.608L761.389 164.784Z" fill="#D7D7D7" stroke="#818181" stroke-width="0.2094"/>
<path d="M770.85 192.95L810.91 164.692L745.874 185.574L770.85 192.95Z" fill="#D7D7D7" stroke="#818181" stroke-width="0.2094"/>
<path d="M746.197 210.357L786.216 238.771L745.891 185.559L746.197 210.357Z" fill="#D7D7D7" stroke="#818181" stroke-width="0.2094"/>
<path d="M721.612 192.939L706.228 238.635L745.92 185.544L721.612 192.939Z" fill="#D7D7D7" stroke="#818181" stroke-width="0.2094"/>
<path d="M731.027 164.761L681.591 164.673L745.924 185.594L731.027 164.761Z" fill="#D7D7D7" stroke="#818181" stroke-width="0.2094"/>
<path d="M746.002 192.957C750.092 192.957 753.408 189.641 753.408 185.551C753.408 181.46 750.092 178.144 746.002 178.144C741.911 178.144 738.595 181.46 738.595 185.551C738.595 189.641 741.911 192.957 746.002 192.957Z" fill="black"/>
<path d="M1030.19 600.799C1042.85 612.248 1047.41 627.776 1048.31 642.179C1058.28 634.527 1074.44 630.187 1092.32 634.362C1074.59 652.679 1061.31 649.563 1048.31 642.179C1033.24 645.818 1027.2 632.03 1030.19 600.799ZM1042.8 582.594C1055.47 594.043 1060.02 609.571 1060.92 623.973C1070.9 616.321 1087.06 611.981 1104.94 616.164C1087.2 634.473 1073.92 631.357 1060.92 623.973C1045.86 627.62 1039.82 613.825 1042.8 582.594ZM1049.69 562.757C1063.85 572.033 1070.57 586.641 1073.52 600.731C1082.28 591.554 1092.92 588.398 1111.18 589.646C1096.27 610.609 1087.42 605.931 1073.52 600.731C1059.15 606.757 1051.21 594.099 1049.69 562.757ZM1056.37 536.282C1070.52 545.558 1077.09 559.474 1080.05 573.566C1088.81 564.389 1093.09 554.51 1115.46 557.868C1102.36 573.287 1093.39 581.35 1079.48 576.148C1058.28 579.737 1061.57 558.895 1056.37 536.282ZM1061.72 507.029C1075.88 516.305 1082.45 530.228 1085.4 544.313C1094.17 535.143 1101.78 522.675 1124.14 526.034C1112.05 538.723 1097.59 556.184 1084.84 546.896C1063.63 550.484 1066.93 529.642 1061.72 507.029ZM1061.26 481.593C1075.41 490.869 1085.35 499.566 1088.29 513.65C1097.07 504.48 1104.68 492.012 1127.04 495.371C1114.95 508.06 1100.49 525.521 1087.73 516.239C1066.53 519.821 1066.46 504.206 1061.26 481.593ZM1062.25 457.484C1077.63 464.2 1088.77 471.068 1093.83 484.46C1101.07 473.902 1106.69 460.286 1129.27 459.744C1119.28 474.353 1107.67 494.072 1093.67 487.109C1073.29 494.299 1070.84 478.903 1062.25 457.484ZM1062.53 431.711C1078.73 435.687 1090.77 440.546 1097.81 452.89C1103.35 441.222 1106.81 426.824 1129.01 422.4C1121.38 438.53 1112.94 459.991 1098.06 455.533C1079.05 466.137 1074.28 451.369 1062.53 431.711ZM1055.94 410.208C1072.54 411.345 1085.16 414.07 1093.99 425.034C1097.68 412.568 1101 403.947 1122.23 395.752C1117.17 412.991 1110.01 429.436 1094.64 427.601C1077.51 441.34 1070.54 427.588 1055.94 410.208ZM1050.57 385.597C1067.17 386.726 1079.79 389.451 1088.62 400.422C1092.31 387.95 1093.75 376.669 1114.98 368.481C1109.91 385.714 1104.63 404.823 1089.27 402.984C1072.13 416.723 1065.17 402.973 1050.57 385.597ZM1046.79 363.258C1063.38 364.388 1076 367.113 1084.83 378.084C1088.52 365.612 1089.96 354.324 1111.19 346.136C1106.13 363.369 1100.85 382.484 1085.48 380.645C1068.34 394.384 1061.38 380.631 1046.79 363.258ZM1043 340.913C1059.59 342.049 1072.21 344.774 1081.05 355.739C1084.73 343.273 1086.17 331.986 1107.41 323.798C1102.34 341.03 1097.06 360.139 1081.69 358.307C1064.56 372.046 1057.59 358.292 1043 340.913ZM1031.19 329.322C1044.77 324.261 1064.63 324.161 1072.9 335.123C1076.37 322.648 1077.73 311.366 1097.64 303.158C1092.88 320.388 1087.91 339.51 1073.5 337.683C1054.39 347.296 1048.57 339.121 1031.19 329.322ZM1027.9 316.78C1035.17 311.054 1058.25 306.277 1067.39 315.772C1068.95 302.887 1068.71 291.514 1086.11 280.182C1083.98 297.987 1081.91 317.686 1068.29 318.207C1051.82 330.791 1035.74 326.776 1027.9 316.78ZM1017.96 301.735C1029.9 294.54 1045.4 288.825 1054.54 298.314C1056.1 285.428 1055.52 273.201 1072.92 261.875C1070.79 279.68 1073.35 300.211 1054.54 298.314C1038.07 310.905 1035.4 308.615 1017.96 301.735ZM1012.38 284.505C1024.31 277.31 1036.71 269.065 1045.85 278.561C1042.46 265.896 1044.49 252.375 1061.89 241.05C1059.76 258.855 1064.65 280.461 1045.85 278.561C1029.38 291.144 1029.81 291.385 1012.38 284.505ZM1002.18 269.865C1012.88 263.415 1023.38 255.429 1031.57 263.94C1028.53 252.587 1032.48 237.942 1048.07 227.789C1046.17 243.743 1049.57 267.032 1032.72 265.336C1017.96 276.613 1017.8 276.035 1002.18 269.865ZM987.255 261.287C997.951 254.831 1008.45 246.845 1016.65 255.363C1013.6 244.002 1017.56 229.358 1033.15 219.206C1031.24 235.166 1034.65 258.455 1017.79 256.752C1003.04 268.035 1002.88 267.451 987.255 261.287ZM1006.18 239.58C985.777 234.644 976.081 219.664 971.257 200.114C989.189 208.683 1000.83 221.838 1006.18 239.58ZM1007.79 240.615C1005.44 223.413 1013.02 211.688 1025.1 202.453C1024.25 218.764 1018.48 231.48 1007.79 240.615ZM1007.78 240.855C996.105 254.468 981.977 255.765 966.738 251.488C979.874 241.258 993.552 237.712 1007.78 240.855ZM479.393 706.2L493.22 735.58L510.374 726.543L490.498 697.643L478.521 617.584L465.429 648.838L471.925 581.912L461.33 629.531L462.352 561.348L449.672 601.355L454.487 536.731L441.841 574.407L447.596 520.296L437.368 543.437L443.57 495.743L423.456 519.306L446.163 469.553L425.164 478.525L445.911 449.73L428.793 456.437L445.662 429.324L428.524 437.779L445.691 390.853L421.303 406.764L458.144 366.003L427.755 378.893L462.882 342.762L440.845 348.222L472.421 328.937L442.16 333.674L492.117 296.63L457.045 292.535L507.711 281.735L476.563 272.464L513.491 262.596L486.696 255.729L525.207 249.972L543.588 232.212L495.652 244.223L541.422 193.703L490.973 226.654L494.475 176.001L474.202 246.778L475.059 189.665L463.062 257.663L459.861 215.053L451.198 280.196L444.516 249.772L437.481 316.106L428.965 261.749L422.484 328.092L408.955 278.317L410.196 341.872L398.483 317.778L402.796 359.818L392.127 339.237L399.097 386.571L382.556 354.815L394.699 423.804L378.54 403.129L397.065 448.906L370.628 418.148L394.061 466.344L366.343 447.803L392.11 486.713L370.18 473.654L399.263 513.389L366.324 492.33L395.702 530.899L375.985 525.879L425.165 599.919L382.234 559.413L429.112 617.915L394.904 592.85L427.334 626.628L400.157 608.679L443.965 652.552L422.079 647.522L465.955 682.112L479.393 706.2ZM1020.92 679.947L991.301 720.311L1001.12 725.123L1029.09 684.737C1043.49 684.428 1064.6 689.181 1077.03 670.873C1061.89 667.428 1046.72 666.419 1031.47 670.778C1032.01 658.159 1028.88 645.485 1022.09 632.75C1014.54 649.55 1031.55 668.978 1020.92 679.947Z" fill="#18B400"/>
<path d="M1048.31 642.179C1047.41 627.776 1042.85 612.248 1030.19 600.799C1027.2 632.03 1033.24 645.818 1048.31 642.179ZM1048.31 642.179C1058.28 634.527 1074.44 630.187 1092.32 634.362C1074.59 652.679 1061.31 649.563 1048.31 642.179ZM1060.92 623.973C1060.02 609.571 1055.47 594.043 1042.8 582.594C1039.82 613.825 1045.86 627.62 1060.92 623.973ZM1060.92 623.973C1070.9 616.321 1087.06 611.981 1104.94 616.164C1087.2 634.473 1073.92 631.357 1060.92 623.973ZM1073.52 600.731C1070.57 586.641 1063.85 572.033 1049.69 562.757C1051.21 594.099 1059.15 606.757 1073.52 600.731ZM1073.52 600.731C1082.28 591.554 1092.92 588.398 1111.18 589.646C1096.27 610.609 1087.42 605.931 1073.52 600.731ZM1054.54 298.314C1045.4 288.825 1029.9 294.54 1017.96 301.735C1035.4 308.615 1038.07 310.905 1054.54 298.314ZM1054.54 298.314C1056.1 285.428 1055.52 273.201 1072.92 261.875C1070.79 279.68 1073.35 300.211 1054.54 298.314ZM1045.85 278.561C1036.71 269.065 1024.31 277.31 1012.38 284.505C1029.81 291.385 1029.38 291.144 1045.85 278.561ZM1045.85 278.561C1042.46 265.896 1044.49 252.375 1061.89 241.05C1059.76 258.855 1064.65 280.461 1045.85 278.561ZM1056.37 536.282C1070.52 545.558 1077.09 559.474 1080.05 573.566C1088.81 564.389 1093.09 554.51 1115.46 557.868C1102.36 573.287 1093.39 581.35 1079.48 576.148C1058.28 579.737 1061.57 558.895 1056.37 536.282ZM1061.72 507.029C1075.88 516.305 1082.45 530.228 1085.4 544.313C1094.17 535.143 1101.78 522.675 1124.14 526.034C1112.05 538.723 1097.59 556.184 1084.84 546.896C1063.63 550.484 1066.93 529.642 1061.72 507.029ZM1061.26 481.593C1075.41 490.869 1085.35 499.566 1088.29 513.65C1097.07 504.48 1104.68 492.012 1127.04 495.371C1114.95 508.06 1100.49 525.521 1087.73 516.239C1066.53 519.821 1066.46 504.206 1061.26 481.593ZM1062.25 457.484C1077.63 464.2 1088.77 471.068 1093.83 484.46C1101.07 473.902 1106.69 460.286 1129.27 459.744C1119.28 474.353 1107.67 494.072 1093.67 487.109C1073.29 494.299 1070.84 478.903 1062.25 457.484ZM1062.53 431.711C1078.73 435.687 1090.77 440.546 1097.81 452.89C1103.35 441.222 1106.81 426.824 1129.01 422.4C1121.38 438.53 1112.94 459.991 1098.06 455.533C1079.05 466.137 1074.28 451.369 1062.53 431.711ZM1055.94 410.208C1072.54 411.345 1085.16 414.07 1093.99 425.034C1097.68 412.568 1101 403.947 1122.23 395.752C1117.17 412.991 1110.01 429.436 1094.64 427.601C1077.51 441.34 1070.54 427.588 1055.94 410.208ZM1050.57 385.597C1067.17 386.726 1079.79 389.451 1088.62 400.422C1092.31 387.95 1093.75 376.669 1114.98 368.481C1109.91 385.714 1104.63 404.823 1089.27 402.984C1072.13 416.723 1065.17 402.973 1050.57 385.597ZM1046.79 363.258C1063.38 364.388 1076 367.113 1084.83 378.084C1088.52 365.612 1089.96 354.324 1111.19 346.136C1106.13 363.369 1100.85 382.484 1085.48 380.645C1068.34 394.384 1061.38 380.631 1046.79 363.258ZM1043 340.913C1059.59 342.049 1072.21 344.774 1081.05 355.739C1084.73 343.273 1086.17 331.986 1107.41 323.798C1102.34 341.03 1097.06 360.139 1081.69 358.307C1064.56 372.046 1057.59 358.292 1043 340.913ZM1031.19 329.322C1044.77 324.261 1064.63 324.161 1072.9 335.123C1076.37 322.648 1077.73 311.366 1097.64 303.158C1092.88 320.388 1087.91 339.51 1073.5 337.683C1054.39 347.296 1048.57 339.121 1031.19 329.322ZM1027.9 316.78C1035.17 311.054 1058.25 306.277 1067.39 315.772C1068.95 302.887 1068.71 291.514 1086.11 280.182C1083.98 297.987 1081.91 317.686 1068.29 318.207C1051.82 330.791 1035.74 326.776 1027.9 316.78ZM1002.18 269.865C1012.88 263.415 1023.38 255.429 1031.57 263.94C1028.53 252.587 1032.48 237.942 1048.07 227.789C1046.17 243.743 1049.57 267.032 1032.72 265.336C1017.96 276.613 1017.8 276.035 1002.18 269.865ZM987.255 261.287C997.951 254.831 1008.45 246.845 1016.65 255.363C1013.6 244.002 1017.56 229.358 1033.15 219.206C1031.24 235.166 1034.65 258.455 1017.79 256.752C1003.04 268.035 1002.88 267.451 987.255 261.287ZM1006.18 239.58C985.777 234.644 976.081 219.664 971.257 200.114C989.189 208.683 1000.83 221.838 1006.18 239.58ZM1007.79 240.615C1005.44 223.413 1013.02 211.688 1025.1 202.453C1024.25 218.764 1018.48 231.48 1007.79 240.615ZM1007.78 240.855C996.105 254.468 981.977 255.765 966.738 251.488C979.874 241.258 993.552 237.712 1007.78 240.855ZM479.393 706.2L493.22 735.58L510.374 726.543L490.498 697.643L478.521 617.584L465.429 648.838L471.925 581.912L461.33 629.531L462.352 561.348L449.672 601.355L454.487 536.731L441.841 574.407L447.596 520.296L437.368 543.437L443.57 495.743L423.456 519.306L446.163 469.553L425.164 478.525L445.911 449.73L428.793 456.437L445.662 429.324L428.524 437.779L445.691 390.853L421.303 406.764L458.144 366.003L427.755 378.893L462.882 342.762L440.845 348.222L472.421 328.937L442.16 333.674L492.117 296.63L457.045 292.535L507.711 281.735L476.563 272.464L513.491 262.596L486.696 255.729L525.207 249.972L543.588 232.212L495.652 244.223L541.422 193.703L490.973 226.654L494.475 176.001L474.202 246.778L475.059 189.665L463.062 257.663L459.861 215.053L451.198 280.196L444.516 249.772L437.481 316.106L428.965 261.749L422.484 328.092L408.955 278.317L410.196 341.872L398.483 317.778L402.796 359.818L392.127 339.237L399.097 386.571L382.556 354.815L394.699 423.804L378.54 403.129L397.065 448.906L370.628 418.148L394.061 466.344L366.343 447.803L392.11 486.713L370.18 473.654L399.263 513.389L366.324 492.33L395.702 530.899L375.985 525.879L425.165 599.919L382.234 559.413L429.112 617.915L394.904 592.85L427.334 626.628L400.157 608.679L443.965 652.552L422.079 647.522L465.955 682.112L479.393 706.2ZM1020.92 679.947L991.301 720.311L1001.12 725.123L1029.09 684.737C1043.49 684.428 1064.6 689.181 1077.03 670.873C1061.89 667.428 1046.72 666.419 1031.47 670.778C1032.01 658.159 1028.88 645.485 1022.09 632.75C1014.54 649.55 1031.55 668.978 1020.92 679.947Z" stroke="#30734E" stroke-width="0.4334" stroke-miterlimit="2.414"/>
<path fill-rule="evenodd" clip-rule="evenodd" d="M586.505 370.811H616.915L615.741 552.089L592.355 731.025L601.418 730.958L628.608 583.94C642.233 598.779 656.462 607.862 671.16 611.27L655.509 731.026L664.572 730.958L686.429 612.773C696.391 612.463 706.541 609.667 716.832 604.408C722.279 607.447 727.8 609.654 733.389 611.042L718.039 728.447L726.982 728.379L748.362 612.798L749.161 612.784L772.627 718.189L781.235 718.772L761.813 611.162C767.844 609.773 773.935 607.506 780.081 604.359C790.485 609.854 801.172 612.296 812.087 611.732L835.782 718.189L844.389 718.772L824.713 609.76C838.478 606.191 852.553 597.993 866.834 585.22L895.902 715.787L904.389 716.364L876.011 559.102L875.715 375.677L913.698 375.435L806.885 308.438L779.91 326.859L745.556 305.318L715.321 325.96L682.402 305.318L586.505 370.811Z" fill="black"/>
<path d="M682.378 305.325L784.082 370.956H749.621V562.135L761.788 611.166" stroke="#FFD600" stroke-width="0.8376" stroke-miterlimit="2.41"/>
<path d="M745.548 305.32L849.101 372.431H814.647V563.61L826.809 612.644" stroke="#FFD600" stroke-width="0.8376" stroke-miterlimit="2.41"/>
<path d="M1500 847.076C1430.09 836.131 1032.65 915.204 1032.94 860.789L1033.48 793.837C1121.53 802.801 1420.79 741.989 1495.68 763.55C1495.68 763.55 1416.05 785.782 1392.41 815.003C1426.83 816.825 1499.98 847.077 1499.98 847.077L1500 847.076Z" fill="#001FB4"/>
<path d="M0 847.076C69.9085 836.131 467.352 915.204 467.06 860.789L466.524 793.837C378.473 802.801 79.2116 741.989 4.32004 763.55C4.32004 763.55 83.9486 785.782 107.591 815.003C73.1665 816.825 0.0233689 847.077 0.0233689 847.077L0 847.076Z" fill="#001FB4"/>
<path d="M369.148 818.001C371.762 853.241 461.53 804.262 467.041 860.776L466.504 793.823C467.961 734.461 373.484 789.985 369.109 704.109L369.148 818.001Z" fill="#031750"/>
<path d="M1130.82 818.001C1128.21 853.241 1038.44 804.262 1032.93 860.776L1033.46 793.823C1032.01 734.461 1126.48 789.985 1130.86 704.109L1130.82 818.001Z" fill="#031750"/>
<path d="M1130.82 818C1130.82 784.958 960.318 758.175 749.984 758.175C539.66 758.175 369.148 784.96 369.148 818L369.107 704.109C369.107 675.889 539.626 653.012 749.976 653.012C960.323 653.012 1130.84 675.889 1130.84 704.109L1130.82 818Z" fill="#001FB4"/>
<path d="M179.435 849.258L122.438 843.126C123.697 837.568 126.24 832.494 130.068 827.905C133.93 823.287 140.78 818.095 150.617 812.328C156.628 808.791 160.526 806.033 162.312 804.055C164.097 802.077 165.094 800.123 165.301 798.196C165.525 796.112 164.939 794.256 163.541 792.627C162.178 790.971 160.33 790.017 157.998 789.766C155.573 789.505 153.501 790.053 151.782 791.409C150.094 792.769 148.779 795.348 147.836 799.147L128.971 795.561C130.293 790.293 132.109 786.273 134.421 783.502C136.735 780.7 139.781 778.7 143.559 777.502C147.371 776.277 152.48 776.009 158.885 776.698C165.571 777.417 170.682 778.738 174.218 780.659C177.785 782.585 180.456 785.247 182.229 788.646C184.037 792.017 184.73 795.662 184.308 799.58C183.86 803.747 182.203 807.595 179.339 811.124C176.505 814.657 171.626 818.347 164.701 822.194C160.592 824.426 157.827 826 156.408 826.917C155.019 827.837 153.362 829.058 151.437 830.581L181.101 833.773L179.435 849.258Z" fill="white"/>
<path d="M230.124 785.542L261.514 788.92C267.702 789.585 272.602 790.962 276.215 793.049C279.859 795.14 282.756 797.889 284.906 801.297C287.056 804.706 288.466 808.553 289.137 812.841C289.809 817.128 289.893 821.603 289.391 826.268C288.605 833.575 287.155 839.159 285.041 843.021C282.962 846.855 280.298 849.981 277.049 852.4C273.804 854.787 270.438 856.25 266.952 856.787C262.185 857.532 257.92 857.702 254.158 857.298L222.767 853.92L230.124 785.542ZM249.587 803.301L245.567 840.661L250.744 841.218C255.16 841.693 258.352 841.549 260.322 840.785C262.295 839.991 263.94 838.438 265.258 836.127C266.58 833.784 267.535 829.876 268.124 824.403C268.903 817.158 268.255 812.072 266.18 809.143C264.104 806.215 260.33 804.456 254.857 803.867L249.587 803.301Z" fill="white"/>
<path d="M304.102 793.502L360.726 799.594L359.156 814.193L323.708 810.379L322.539 821.247L355.421 824.784L353.92 838.731L321.039 835.193L319.588 848.673L356.063 852.597L354.397 868.082L296.746 861.88L304.102 793.502Z" fill="white"/>
<path d="M463.485 721.413C462.178 709.523 464.483 699.901 470.487 692.556C476.486 685.217 485.527 680.919 497.556 679.756C509.889 678.564 519.703 680.992 526.921 686.955C534.143 692.892 538.2 701.752 539.173 713.511C539.88 722.046 539.013 729.176 536.602 734.896C534.22 740.581 530.468 745.182 525.349 748.715C520.258 752.212 513.725 754.328 505.722 755.097C497.588 755.878 490.723 755.25 485.101 753.184C479.514 751.116 474.753 747.435 470.813 742.13C466.873 736.827 464.42 729.922 463.485 721.413ZM486.058 719.122C486.808 726.48 488.708 731.631 491.739 734.573C494.804 737.513 498.673 738.753 503.358 738.301C508.174 737.837 511.755 735.914 514.109 732.517C516.461 729.123 517.275 723.34 516.532 715.178C515.907 708.307 514.052 703.424 510.95 700.53C507.879 697.601 503.943 696.363 499.153 696.826C494.565 697.269 491.04 699.245 488.59 702.739C486.139 706.236 485.301 711.696 486.058 719.122Z" fill="white"/>
<path d="M596.862 673.193C604.501 672.73 612.142 672.3 619.786 671.903L622.057 715.536C622.282 719.863 621.813 723.992 620.66 727.925C619.537 731.822 617.618 735.295 614.909 738.349C612.231 741.367 609.367 743.55 606.31 744.898C602.062 746.783 596.904 747.914 590.825 748.307C587.309 748.534 583.448 748.54 579.24 748.328C575.064 748.115 571.527 747.383 568.624 746.124C565.719 744.832 562.995 742.913 560.448 740.365C557.933 737.815 556.131 735.13 555.047 732.305C553.298 727.76 552.277 723.697 551.996 720.107L548.586 676.548C556.212 675.95 563.841 675.384 571.474 674.85L574.597 719.485C574.876 723.474 576.19 726.523 578.53 728.633C580.902 730.709 584.035 731.615 587.937 731.36C591.806 731.107 594.762 729.82 596.813 727.489C598.893 725.124 599.816 721.913 599.57 717.854C598.668 702.966 597.764 688.079 596.862 673.193Z" fill="white"/>
<path d="M629.786 671.403C653.077 670.28 676.388 669.463 699.709 668.966L700.097 687.055C692.328 687.221 684.56 687.423 676.792 687.66L678.478 742.819C671.026 743.047 663.573 743.309 656.12 743.603L653.948 688.458C646.183 688.764 638.42 689.104 630.658 689.479L629.786 671.403Z" fill="white"/>
<path d="M758.607 668.393C766.266 668.409 773.926 668.461 781.585 668.548L781.093 712.217C781.044 716.547 780.315 720.636 778.917 724.486C777.553 728.303 775.421 731.647 772.529 734.523C769.671 737.366 766.68 739.363 763.55 740.517C759.2 742.132 753.992 742.939 747.91 742.955C744.392 742.964 740.546 742.732 736.365 742.262C732.217 741.793 728.738 740.846 725.921 739.412C723.105 737.946 720.507 735.864 718.123 733.167C715.772 730.469 714.138 727.68 713.229 724.796C711.76 720.154 710.989 716.037 710.927 712.438L710.169 668.761C717.825 668.629 725.483 668.532 733.14 668.469L733.509 713.197C733.542 717.195 734.666 720.318 736.869 722.568C739.106 724.785 742.174 725.882 746.08 725.869C749.953 725.856 752.98 724.756 755.17 722.558C757.391 720.328 758.512 717.182 758.52 713.117L758.607 668.393Z" fill="white"/>
<path d="M796.888 668.772C811.257 669.026 825.626 669.408 839.991 669.92C847.175 670.176 852.614 672.151 856.284 675.807C859.989 679.466 861.711 683.879 861.479 689.036C861.284 693.361 859.757 697.008 856.914 699.986C855.018 701.971 852.31 703.488 848.79 704.548C854.015 706.023 857.79 708.374 860.114 711.578C862.474 714.752 863.537 718.668 863.32 723.326C863.144 727.119 862.108 730.488 860.223 733.436C858.339 736.384 855.847 738.674 852.749 740.31C850.828 741.329 847.972 742.01 844.175 742.364C839.117 742.838 835.788 743.057 834.138 743.001C821.299 742.564 808.452 742.235 795.601 742.011L796.888 668.772ZM819.338 698.012C822.636 698.102 825.933 698.199 829.231 698.302C832.779 698.413 835.259 697.899 836.674 696.748C838.123 695.565 838.891 693.826 838.972 691.53C839.048 689.399 838.401 687.71 837.029 686.463C835.691 685.217 833.286 684.534 829.818 684.425C826.451 684.319 823.083 684.22 819.715 684.128L819.338 698.012ZM818.556 726.78C822.376 726.883 826.195 726.997 830.014 727.119C833.883 727.242 836.634 726.657 838.271 725.349C839.909 724.007 840.773 722.173 840.858 719.843C840.938 717.68 840.205 715.919 838.655 714.564C837.14 713.177 834.401 712.414 830.441 712.287C826.614 712.164 822.786 712.051 818.959 711.947L818.556 726.78Z" fill="white"/>
<path d="M874.316 744.723L878.106 671.586C890.89 672.249 903.671 673.018 916.446 673.894C923.55 674.381 928.943 675.384 932.601 676.863C936.263 678.342 939.112 680.805 941.143 684.241C943.178 687.645 943.997 691.671 943.619 696.318C943.289 700.368 942.133 703.799 940.162 706.614C938.193 709.396 935.625 711.581 932.458 713.174C930.439 714.188 927.725 714.949 924.313 715.467C926.938 716.561 928.829 717.607 929.988 718.596C930.772 719.257 931.869 720.627 933.273 722.707C934.71 724.788 935.649 726.384 936.093 727.488C939.153 734.829 942.177 742.176 945.165 749.53C936.792 748.825 928.414 748.168 920.033 747.56C916.61 739.833 913.147 732.113 909.642 724.401C908.314 721.408 907.077 719.441 905.939 718.499C904.387 717.263 902.579 716.58 900.52 716.45C899.856 716.408 899.192 716.368 898.528 716.326L896.693 745.991C889.237 745.53 881.778 745.109 874.316 744.723ZM899.382 702.517C902.573 702.714 905.764 702.919 908.954 703.129C909.991 703.199 912.014 702.998 915.035 702.538C916.559 702.343 917.832 701.664 918.856 700.501C919.912 699.34 920.498 697.963 920.612 696.368C920.779 694.01 920.154 692.146 918.73 690.777C917.307 689.409 914.509 688.579 910.34 688.302C906.994 688.08 903.648 687.866 900.301 687.659L899.382 702.517Z" fill="white"/>
<path d="M950.876 713.304C951.893 701.389 956.016 692.398 963.353 686.364C970.681 680.337 980.425 677.892 992.493 679.132C1004.86 680.403 1014.04 684.746 1019.93 692.034C1025.83 699.299 1028.02 708.792 1026.6 720.502C1025.58 729 1023.29 735.809 1019.79 740.924C1016.32 746.013 1011.73 749.766 1006.03 752.205C1000.37 754.616 993.578 755.391 985.619 754.567C977.529 753.73 970.952 751.773 965.866 748.653C960.813 745.536 956.874 741.004 954.046 735.039C951.219 729.077 950.149 721.83 950.876 713.304ZM973.454 715.449C972.749 722.808 973.603 728.229 975.991 731.707C978.414 735.19 981.952 737.163 986.621 737.645C991.421 738.139 995.3 736.965 998.276 734.104C1001.25 731.246 1003.2 725.743 1004.09 717.6C1004.85 710.745 1004 705.593 1001.53 702.141C999.103 698.663 995.483 696.667 990.688 696.175C986.094 695.703 982.242 696.945 979.15 699.889C976.056 702.835 974.166 708.022 973.454 715.449Z" fill="white"/>
<path d="M1179.56 794.177L1186.63 861.312L1168.08 863.265L1163.44 819.276C1160.68 821.873 1157.97 824.026 1155.29 825.734C1152.65 827.439 1149.28 829.159 1145.18 830.896L1143.6 815.857C1149.63 813.189 1154.22 810.262 1157.38 807.077C1160.53 803.892 1162.87 800.125 1164.38 795.778L1179.56 794.177Z" fill="white"/>
<path d="M1205.8 844.287L1223.79 840.071C1224.54 842.572 1225.54 844.288 1226.79 845.218C1228.05 846.149 1229.5 846.527 1231.15 846.354C1234.09 846.044 1236.23 844.316 1237.57 841.171C1238.54 838.853 1238.95 834.12 1238.8 826.973C1236.85 829.455 1234.77 831.343 1232.57 832.637C1230.37 833.931 1227.75 834.738 1224.72 835.057C1218.81 835.68 1213.59 834.105 1209.07 830.332C1204.57 826.556 1201.99 821.456 1201.31 815.033C1200.85 810.65 1201.46 806.549 1203.16 802.729C1204.85 798.908 1207.41 795.892 1210.85 793.678C1214.29 791.435 1218.75 790.024 1224.25 789.445C1230.85 788.75 1236.27 789.333 1240.5 791.194C1244.73 793.025 1248.29 796.292 1251.18 800.995C1254.1 805.665 1255.99 812.053 1256.84 820.157C1258.1 832.074 1256.51 841.073 1252.08 847.154C1247.65 853.205 1240.99 856.698 1232.11 857.633C1226.85 858.187 1222.65 858.022 1219.49 857.141C1216.33 856.229 1213.62 854.709 1211.36 852.579C1209.11 850.449 1207.25 847.686 1205.8 844.287ZM1236.47 811.285C1236.09 807.713 1234.9 805.016 1232.89 803.195C1230.87 801.344 1228.57 800.554 1225.99 800.825C1223.56 801.081 1221.63 802.21 1220.2 804.212C1218.8 806.211 1218.3 809.041 1218.68 812.703C1219.07 816.395 1220.19 819.13 1222.05 820.907C1223.94 822.681 1226.12 823.437 1228.62 823.175C1231.2 822.903 1233.24 821.732 1234.76 819.66C1236.27 817.589 1236.84 814.797 1236.47 811.285Z" fill="white"/>
<path d="M1302.56 781.226L1309.63 848.361L1291.08 850.314L1286.45 806.325C1283.69 808.923 1280.97 811.075 1278.3 812.783C1275.66 814.488 1272.29 816.208 1268.19 817.945L1266.61 802.906C1272.64 800.238 1277.23 797.311 1280.39 794.126C1283.54 790.941 1285.88 787.174 1287.39 782.827L1302.56 781.226Z" fill="white"/>
<path d="M1359.79 830.582L1326.38 834.099L1324.79 819.015L1354.02 775.785L1370 774.102L1374.27 814.672L1382.56 813.799L1384.06 828.028L1375.77 828.9L1377.07 841.237L1361.09 842.92L1359.79 830.582ZM1358.29 816.354L1356.1 795.597L1340.64 818.212L1358.29 816.354Z" fill="white"/>
<defs>
<linearGradient id="paint0_linear_1_325" x1="262.208" y1="490.382" x2="1231.68" y2="494.166" gradientUnits="userSpaceOnUse">
<stop stop-color="#F6F652"/>
<stop offset="1" stop-color="#CD9329"/>
</linearGradient>
<linearGradient id="paint1_linear_1_325" x1="262.208" y1="490.382" x2="1231.68" y2="494.166" gradientUnits="userSpaceOnUse">
<stop stop-color="#F6F652"/>
<stop offset="1" stop-color="#CD9329"/>
</linearGradient>
<linearGradient id="paint2_linear_1_325" x1="262.208" y1="490.382" x2="1231.68" y2="494.166" gradientUnits="userSpaceOnUse">
<stop stop-color="#F6F652"/>
<stop offset="1" stop-color="#CD9329"/>
</linearGradient>
<linearGradient id="paint3_linear_1_325" x1="262.208" y1="490.382" x2="1231.68" y2="494.166" gradientUnits="userSpaceOnUse">
<stop stop-color="#F6F652"/>
<stop offset="1" stop-color="#CD9329"/>
</linearGradient>
<linearGradient id="paint4_linear_1_325" x1="262.208" y1="490.383" x2="1231.68" y2="494.166" gradientUnits="userSpaceOnUse">
<stop stop-color="#F6F652"/>
<stop offset="1" stop-color="#CD9329"/>
</linearGradient>
<linearGradient id="paint5_linear_1_325" x1="262.208" y1="490.382" x2="1231.68" y2="494.166" gradientUnits="userSpaceOnUse">
<stop stop-color="#F6F652"/>
<stop offset="1" stop-color="#CD9329"/>
</linearGradient>
<linearGradient id="paint6_linear_1_325" x1="262.208" y1="490.382" x2="1231.68" y2="494.166" gradientUnits="userSpaceOnUse">
<stop stop-color="#F6F652"/>
<stop offset="1" stop-color="#CD9329"/>
</linearGradient>
<linearGradient id="paint7_linear_1_325" x1="262.208" y1="490.382" x2="1231.68" y2="494.166" gradientUnits="userSpaceOnUse">
<stop stop-color="#F6F652"/>
<stop offset="1" stop-color="#CD9329"/>
</linearGradient>
<linearGradient id="paint8_linear_1_325" x1="262.208" y1="490.382" x2="1231.68" y2="494.166" gradientUnits="userSpaceOnUse">
<stop stop-color="#F6F652"/>
<stop offset="1" stop-color="#CD9329"/>
</linearGradient>
<linearGradient id="paint9_linear_1_325" x1="262.208" y1="490.382" x2="1231.68" y2="494.166" gradientUnits="userSpaceOnUse">
<stop stop-color="#F6F652"/>
<stop offset="1" stop-color="#CD9329"/>
</linearGradient>
<linearGradient id="paint10_linear_1_325" x1="262.208" y1="490.382" x2="1231.68" y2="494.166" gradientUnits="userSpaceOnUse">
<stop stop-color="#F6F652"/>
<stop offset="1" stop-color="#CD9329"/>
</linearGradient>
<linearGradient id="paint11_linear_1_325" x1="262.208" y1="490.383" x2="1231.68" y2="494.166" gradientUnits="userSpaceOnUse">
<stop stop-color="#F6F652"/>
<stop offset="1" stop-color="#CD9329"/>
</linearGradient>
<linearGradient id="paint12_linear_1_325" x1="262.208" y1="490.382" x2="1231.68" y2="494.166" gradientUnits="userSpaceOnUse">
<stop stop-color="#F6F652"/>
<stop offset="1" stop-color="#CD9329"/>
</linearGradient>
<linearGradient id="paint13_linear_1_325" x1="262.208" y1="490.382" x2="1231.68" y2="494.166" gradientUnits="userSpaceOnUse">
<stop stop-color="#F6F652"/>
<stop offset="1" stop-color="#CD9329"/>
</linearGradient>
<linearGradient id="paint14_linear_1_325" x1="262.208" y1="490.382" x2="1231.68" y2="494.166" gradientUnits="userSpaceOnUse">
<stop stop-color="#F6F652"/>
<stop offset="1" stop-color="#CD9329"/>
</linearGradient>
</defs>
</svg>
